<svg width="46" height="50" viewBox="0 0 46 50" fill="none" xmlns="http://www.w3.org/2000/svg">
<path d="M33.5102 37.7172C33.6387 38.2708 33.735 38.7952 33.812 39.2737C34.2198 38.8757 34.672 38.3856 35.1413 37.7919C36.8706 35.6043 38.8666 31.9672 39.6899 26.2611C40.1034 15.769 31.8677 6.88072 21.2296 6.42115C11.5713 6.00391 9.32116 10.1519 9.08519 11.5705C8.97979 12.2041 9.28175 13.5444 10.5282 15.2929C11.7232 16.9693 13.6403 18.8024 16.2805 20.3596C17.677 21.1833 18.6308 21.7348 19.3137 22.1267C19.539 22.2559 19.7379 22.3696 19.9153 22.471C20.2669 22.6719 20.5333 22.8241 20.751 22.9528C21.3899 23.3303 21.701 23.5607 22.6062 24.2307C22.7137 24.3102 22.8295 24.396 22.9552 24.4889C23.2791 24.7283 23.5862 24.9529 23.8798 25.1675C24.9586 25.9564 25.8543 26.6115 26.7323 27.3774C27.8769 28.3759 28.9865 29.554 30.551 31.4885C32.2685 33.6124 33.0758 35.8453 33.5102 37.7172Z" stroke="#292953" stroke-width="3" stroke-linejoin="round"/>
<path d="M39.1413 20.578C41.9111 30.915 35.6971 41.5872 25.2241 44.3935C20.6137 45.6288 16.3922 44.9806 13.5104 43.6903C12.0605 43.0411 11.0237 42.2631 10.4364 41.5592C9.82368 40.8249 9.88372 40.4312 9.92054 40.33C10.3357 39.189 10.8523 38.7462 11.9837 37.7768C12.0614 37.7102 12.1419 37.6412 12.2255 37.5693C13.5415 36.4377 15.2382 34.8673 17.3633 31.5223C17.4224 31.4598 17.4709 31.4008 17.5072 31.3545C17.6112 31.2219 17.7117 31.0693 17.8038 30.9176C17.9925 30.607 18.2107 30.1933 18.4377 29.6994C18.8936 28.7078 19.4154 27.3269 19.8205 25.6817C20.6277 22.4029 20.9979 17.9588 19.3248 13.4392C18.0205 9.91614 16.0573 8.1205 14.3352 7.15577C14.5961 7.07442 14.8775 6.99301 15.1809 6.91172C25.6539 4.10549 36.3715 10.241 39.1413 20.578Z" stroke="#292953" stroke-width="3" stroke-linejoin="round"/>
<path d="M30.8016 31.5914C36.9337 25.8009 37.6303 19.7245 37.026 15.3379C38.1099 17.0604 38.9334 18.9882 39.4291 21.081C40.6294 26.1489 39.4139 31.5674 37.0445 35.6928C35.8638 37.7486 34.429 39.4246 32.9389 40.5536C31.4412 41.6882 29.9786 42.2063 28.6941 42.1475C26.7425 42.0582 25.8677 40.4678 25.9058 39.2155C25.9175 38.8299 26.1238 38.1717 26.6017 37.2716C27.057 36.414 27.6726 35.494 28.3099 34.6315C28.9433 33.7742 29.5773 33.0017 30.0545 32.4421C30.2924 32.1631 30.4898 31.9388 30.6266 31.7855C30.695 31.7089 30.7482 31.6501 30.7836 31.6111L30.8016 31.5914Z" stroke="#292953" stroke-width="3" stroke-linejoin="round"/>
</svg>
