<svg width="46" height="50" viewBox="0 0 46 50" fill="none" xmlns="http://www.w3.org/2000/svg">
<path d="M33.5095 37.7172C33.6379 38.2708 33.7342 38.7952 33.8113 39.2737C34.219 38.8757 34.6713 38.3856 35.1406 37.7919C36.8698 35.6043 38.8659 31.9672 39.6891 26.2611C40.1026 15.769 31.867 6.88072 21.2289 6.42115C11.5706 6.00391 9.32042 10.1519 9.08446 11.5705C8.97906 12.2041 9.28102 13.5444 10.5274 15.2929C11.7224 16.9693 13.6396 18.8024 16.2798 20.3596C17.6763 21.1833 18.6301 21.7348 19.313 22.1267C19.5382 22.2559 19.7372 22.3696 19.9145 22.471C20.2661 22.6719 20.5326 22.8241 20.7503 22.9528C21.3892 23.3303 21.7003 23.5607 22.6055 24.2307C22.7129 24.3102 22.8287 24.396 22.9544 24.4889C23.2784 24.7283 23.5855 24.9529 23.8791 25.1675C24.9579 25.9564 25.8536 26.6115 26.7316 27.3774C27.8762 28.3759 28.9858 29.554 30.5502 31.4885C32.2678 33.6124 33.0751 35.8453 33.5095 37.7172Z" stroke="#292953" stroke-width="3" stroke-linejoin="round"/>
<path d="M39.1413 20.578C41.9111 30.915 35.6971 41.5872 25.2241 44.3935C20.6137 45.6288 16.3922 44.9806 13.5104 43.6903C12.0605 43.0411 11.0237 42.2631 10.4364 41.5592C9.82368 40.8249 9.88372 40.4312 9.92054 40.33C10.3357 39.189 10.8523 38.7462 11.9837 37.7768C12.0614 37.7102 12.1419 37.6412 12.2255 37.5693C13.5415 36.4377 15.2382 34.8673 17.3633 31.5223C17.4224 31.4598 17.4709 31.4008 17.5072 31.3545C17.6112 31.2219 17.7117 31.0693 17.8038 30.9176C17.9925 30.607 18.2107 30.1933 18.4377 29.6994C18.8936 28.7078 19.4154 27.3269 19.8205 25.6817C20.6277 22.4029 20.9979 17.9588 19.3248 13.4392C18.0205 9.91614 16.0573 8.1205 14.3352 7.15577C14.5961 7.07442 14.8775 6.99301 15.1809 6.91172C25.6539 4.10549 36.3715 10.241 39.1413 20.578Z" stroke="#292953" stroke-width="3" stroke-linejoin="round"/>
<path d="M30.8008 31.5914C36.9329 25.8009 37.6295 19.7245 37.0252 15.3379C38.1092 17.0604 38.9327 18.9882 39.4283 21.081C40.6287 26.1489 39.4131 31.5674 37.0438 35.6928C35.8631 37.7486 34.4283 39.4246 32.9382 40.5536C31.4405 41.6882 29.9779 42.2063 28.6934 42.1475C26.7418 42.0582 25.8669 40.4678 25.9051 39.2155C25.9168 38.8299 26.1231 38.1717 26.6009 37.2716C27.0563 36.414 27.6719 35.494 28.3091 34.6315C28.9426 33.7742 29.5766 33.0017 30.0537 32.4421C30.2917 32.1631 30.4891 31.9388 30.6259 31.7855C30.6943 31.7089 30.7475 31.6501 30.7829 31.6111L30.8008 31.5914Z" stroke="#292953" stroke-width="3" stroke-linejoin="round"/>
</svg>
