<svg width="54" height="59" viewBox="0 0 54 59" fill="none" xmlns="http://www.w3.org/2000/svg">
<path d="M39.0839 44.3357C39.2781 45.1725 39.4092 45.9527 39.5104 46.6353C40.0853 46.1081 40.7558 45.4139 41.4575 44.5262C43.5171 41.9207 45.8807 37.6042 46.8526 30.8521C47.3514 18.3835 37.567 7.82309 24.933 7.27729C13.5185 6.78418 10.7145 11.6966 10.4079 13.54C10.2672 14.386 10.6693 16.0315 12.1467 18.104C13.5727 20.1044 15.8515 22.2803 18.9794 24.1251C20.6197 25.0926 21.7403 25.7406 22.5428 26.2011C22.8089 26.3538 23.0433 26.4878 23.2517 26.6068C23.6631 26.8419 23.9732 27.0191 24.2271 27.1692C24.965 27.6052 25.3192 27.8674 26.3843 28.6558C26.5099 28.7487 26.6453 28.849 26.7923 28.9576C27.1758 29.241 27.5382 29.5061 27.8839 29.7589C29.1485 30.6837 30.1885 31.4443 31.2099 32.3353C32.5382 33.4941 33.8303 34.8647 35.6613 37.1289C37.6455 39.5824 38.5799 42.1635 39.0839 44.3357Z" stroke="#292953" stroke-width="3" stroke-linejoin="round"/>
<path d="M46.2004 24.0892C49.4898 36.3654 42.1096 49.0351 29.6784 52.366C24.2065 53.8322 19.1894 53.0651 15.7534 51.5267C14.0264 50.7535 12.7729 49.819 12.0511 48.954C11.304 48.0586 11.3118 47.499 11.4007 47.2547C11.9119 45.8495 12.5673 45.2882 13.8883 44.1569C13.9827 44.0761 14.0804 43.9924 14.1816 43.9053C15.7147 42.5871 17.6923 40.758 20.1766 36.8428C20.2461 36.7711 20.3035 36.7016 20.3467 36.6465C20.4599 36.5021 20.5719 36.3326 20.6772 36.1592C20.8923 35.8051 21.1438 35.3287 21.4073 34.7556C21.936 33.6055 22.5429 32.0001 23.0142 30.0858C23.954 26.2688 24.3813 21.1083 22.441 15.8671C20.7955 11.4223 18.2522 9.36994 16.1616 8.34485C16.6269 8.18334 17.1553 8.02209 17.7535 7.86178C30.1847 4.53085 42.911 11.813 46.2004 24.0892Z" stroke="#292953" stroke-width="3" stroke-linejoin="round"/>
<path d="M35.9723 36.9025C43.6745 29.6338 43.9964 21.9952 43.0118 16.8568C44.6342 19.1488 45.8528 21.7846 46.5402 24.6871C47.9674 30.7126 46.5213 37.1411 43.7134 42.0301C42.3134 44.4677 40.6073 46.464 38.825 47.8143C37.0352 49.1702 35.2597 49.8107 33.6725 49.7381C31.2026 49.625 30.1026 47.6005 30.1505 46.0276C30.1662 45.5129 30.4323 44.6963 30.9977 43.6313C31.5406 42.6087 32.2715 41.5172 33.0236 40.4993C33.7719 39.4866 34.5201 38.5749 35.0829 37.9149C35.3637 37.5857 35.5967 37.321 35.7585 37.1397C35.8393 37.0491 35.9023 36.9794 35.9444 36.9332L35.9723 36.9025Z" stroke="#292953" stroke-width="3" stroke-linejoin="round"/>
</svg>
