<svg width="29" height="30" viewBox="0 0 29 30" fill="none" xmlns="http://www.w3.org/2000/svg">
<path d="M19.0866 19.0475C20.4754 20.7469 20.9009 22.6821 21.0921 23.933C21.392 23.6615 21.7426 23.3031 22.1095 22.8437C23.1774 21.5069 24.4024 19.2929 24.9061 15.8302C25.1642 9.44016 20.0951 4.01448 13.5323 3.73392C7.60444 3.48051 6.15081 6.00656 5.99257 6.94795C5.92014 7.37881 6.12711 8.22149 6.89373 9.28571C7.63326 10.3123 8.81546 11.4294 10.4386 12.3768C11.2891 12.8732 11.8702 13.2057 12.2864 13.442C12.4245 13.5204 12.5461 13.5892 12.6542 13.6503C12.8674 13.7708 13.0281 13.8617 13.1596 13.9386C13.5418 14.1621 13.725 14.2963 14.2774 14.701C14.3425 14.7486 14.4126 14.8 14.4889 14.8558C14.6878 15.0012 14.8758 15.1373 15.055 15.267C15.7107 15.7415 16.2496 16.1315 16.779 16.5885C17.4674 17.1827 18.1372 17.8858 19.0866 19.0475Z" stroke="#292953" stroke-width="1.5393" stroke-linejoin="round"/>
<path d="M24.5676 12.3583C26.2716 18.6512 22.4497 25.1578 15.9934 26.8696C13.1526 27.6229 10.5483 27.2287 8.76528 26.4387C7.86901 26.0416 7.21893 25.5619 6.84492 25.1184C6.45797 24.6595 6.46323 24.3747 6.50875 24.2509C6.77419 23.5289 7.1152 23.2399 7.80074 22.6589C7.84957 22.6175 7.90014 22.5747 7.95256 22.53C8.7469 21.8541 9.7719 20.9162 11.0599 18.9075C11.0958 18.8707 11.1256 18.8351 11.148 18.8068C11.2065 18.733 11.2644 18.6462 11.319 18.5573C11.4304 18.3758 11.5608 18.1315 11.6974 17.8375C11.9715 17.2474 12.2862 16.4237 12.5306 15.4414C13.0179 13.4828 13.2397 10.8338 12.233 8.14283C11.3798 5.86212 10.0616 4.80894 8.97906 4.28308C9.2218 4.19956 9.49756 4.11622 9.80989 4.03341C16.2661 2.32154 22.8636 6.06539 24.5676 12.3583Z" stroke="#292953" stroke-width="1.5393" stroke-linejoin="round"/>
<path d="M19.2501 18.9376C23.2583 15.1946 23.4116 11.2583 22.8928 8.61857C23.7448 9.80142 24.3843 11.1638 24.7436 12.6652C25.4831 15.7547 24.7341 19.0523 23.2777 21.5616C22.5516 22.8125 21.6664 23.8378 20.7409 24.5316C19.8115 25.2284 18.8875 25.5589 18.0601 25.5214C16.7715 25.4631 16.2058 24.4209 16.2304 23.6202C16.2385 23.3571 16.3762 22.9384 16.6697 22.3914C16.9513 21.8666 17.3304 21.3063 17.7205 20.7839C18.1086 20.2641 18.4967 19.7962 18.7886 19.4575C18.9342 19.2885 19.0551 19.1526 19.139 19.0596C19.1809 19.0131 19.2136 18.9773 19.2354 18.9535L19.2501 18.9376Z" stroke="#292953" stroke-width="1.5393" stroke-linejoin="round"/>
</svg>
