<svg width="29" height="30" viewBox="0 0 29 30" fill="none" xmlns="http://www.w3.org/2000/svg">
<path d="M18.6862 19.0475C20.075 20.7469 20.5006 22.6821 20.6917 23.933C20.9916 23.6615 21.3422 23.3031 21.7092 22.8437C22.777 21.5069 24.002 19.2929 24.5058 15.8302C24.7638 9.44016 19.6947 4.01448 13.1319 3.73392C7.20405 3.48051 5.75042 6.00656 5.59218 6.94795C5.51975 7.37881 5.72672 8.22149 6.49334 9.28571C7.23287 10.3123 8.41507 11.4294 10.0382 12.3768C10.8887 12.8732 11.4698 13.2057 11.886 13.442C12.0241 13.5204 12.1457 13.5892 12.2538 13.6503C12.467 13.7708 12.6277 13.8617 12.7592 13.9386C13.1414 14.1621 13.3246 14.2963 13.877 14.7009C13.9421 14.7486 14.0122 14.8 14.0885 14.8558C14.2874 15.0012 14.4754 15.1373 14.6547 15.267C15.3103 15.7415 15.8492 16.1315 16.3786 16.5885C17.067 17.1827 17.7368 17.8858 18.6862 19.0475Z" stroke="white" stroke-width="1.5393" stroke-linejoin="round"/>
<path d="M24.1672 12.3583C25.8712 18.6512 22.0493 25.1578 15.5931 26.8696C12.7522 27.6229 10.1479 27.2287 8.36489 26.4387C7.46861 26.0416 6.81854 25.5619 6.44453 25.1184C6.05758 24.6595 6.06284 24.3747 6.10836 24.2509C6.3738 23.5289 6.71481 23.2399 7.40035 22.6589C7.44918 22.6175 7.49975 22.5747 7.55217 22.5301C8.34651 21.8541 9.37151 20.9162 10.6595 18.9075C10.6955 18.8707 10.7252 18.8351 10.7477 18.8068C10.8061 18.733 10.8641 18.6462 10.9186 18.5573C11.03 18.3758 11.1604 18.1315 11.297 17.8375C11.5711 17.2474 11.8858 16.4237 12.1302 15.4414C12.6175 13.4828 12.8394 10.8338 11.8326 8.14283C10.9794 5.86212 9.66121 4.80894 8.57867 4.28308C8.82141 4.19956 9.09717 4.11622 9.4095 4.03341C15.8657 2.32154 22.4632 6.06539 24.1672 12.3583Z" stroke="white" stroke-width="1.5393" stroke-linejoin="round"/>
<path d="M18.8497 18.9376C22.858 15.1946 23.0112 11.2583 22.4924 8.61857C23.3444 9.80142 23.9839 11.1638 24.3433 12.6652C25.0827 15.7547 24.3337 19.0523 22.8773 21.5616C22.1512 22.8125 21.266 23.8378 20.3405 24.5316C19.4111 25.2284 18.4872 25.5589 17.6597 25.5214C16.3711 25.4631 15.8054 24.4209 15.83 23.6202C15.8381 23.3571 15.9759 22.9384 16.2693 22.3914C16.5509 21.8666 16.93 21.3063 17.3201 20.7839C17.7082 20.2641 18.0963 19.7962 18.3882 19.4575C18.5338 19.2885 18.6547 19.1526 18.7386 19.0596C18.7805 19.0131 18.8132 18.9773 18.835 18.9535L18.8497 18.9376Z" stroke="white" stroke-width="1.5393" stroke-linejoin="round"/>
</svg>
