<svg width="54" height="58" viewBox="0 0 54 58" fill="none" xmlns="http://www.w3.org/2000/svg">
<path d="M46.1997 23.8968C49.4849 36.0593 42.1159 48.6296 29.6755 51.9363C24.201 53.3914 19.1825 52.6298 15.747 51.1039C14.0199 50.3368 12.768 49.4105 12.0481 48.5546C11.3029 47.6687 11.3154 47.1216 11.4013 46.8873C11.912 45.495 12.5669 44.9386 13.889 43.8153C13.9831 43.7353 14.0805 43.6526 14.1815 43.5664C15.7143 42.2589 17.6919 40.4446 20.1764 36.5605C20.2458 36.4894 20.3032 36.4206 20.3464 36.3658C20.4597 36.2225 20.5717 36.0542 20.6771 35.8821C20.8923 35.5306 21.144 35.0578 21.4076 34.489C21.9365 33.3476 22.5437 31.7544 23.0153 29.8545C23.9554 26.0665 24.3835 20.9429 22.4411 15.7381C20.8012 11.3438 18.2705 9.3042 16.1847 8.28209C16.6452 8.12419 17.167 7.96656 17.7565 7.80986C30.1968 4.50316 42.9145 11.7344 46.1997 23.8968Z" stroke="white" stroke-width="3"/>
<path d="M35.6579 36.8194C38.3274 40.0939 39.1531 43.822 39.5239 46.2418C40.0966 45.72 40.7636 45.0342 41.4614 44.1585C43.5195 41.5758 45.8812 37.2972 46.8526 30.6042C47.35 18.2538 37.5774 7.77314 24.9324 7.23124C13.5077 6.74164 10.7117 11.621 10.4076 13.4347C10.2685 14.2645 10.6661 15.891 12.1437 17.9472C13.5688 19.9304 15.8472 22.0888 18.9756 23.9192C20.6159 24.8789 21.7365 25.5217 22.539 25.9785C22.8052 26.1301 23.0396 26.263 23.2481 26.3811C23.6594 26.6143 23.9695 26.79 24.2233 26.9389C24.9611 27.3713 25.3151 27.6313 26.3803 28.4135C26.5058 28.5057 26.6412 28.6051 26.7883 28.7129C27.1717 28.994 27.5342 29.2569 27.8798 29.5076C29.1445 30.4251 30.1844 31.1796 31.2059 32.0636C32.5344 33.2132 33.8267 34.5731 35.6579 36.8194Z" stroke="white" stroke-width="3"/>
<path d="M35.9716 36.62C43.6714 29.4118 43.9985 21.8329 43.0139 16.7284C44.6353 19.0005 45.8529 21.6132 46.5398 24.4898C47.9653 30.4603 46.5213 36.8329 43.7139 41.6818C42.3144 44.0991 40.6084 46.0795 38.8256 47.4193C37.0353 48.7649 35.2575 49.4015 33.6674 49.3293C31.1941 49.2171 30.1044 47.211 30.1518 45.6648C30.1673 45.1586 30.4319 44.351 30.9976 43.2941C31.5402 42.2802 32.2709 41.1976 33.023 40.188C33.7712 39.1834 34.5194 38.2791 35.0822 37.6244C35.363 37.2978 35.596 37.0352 35.7578 36.8553C35.8386 36.7655 35.9015 36.6964 35.9436 36.6505L35.9716 36.62Z" stroke="white" stroke-width="3"/>
</svg>
