<svg width="643" height="535" viewBox="0 0 643 535" fill="none" xmlns="http://www.w3.org/2000/svg">
<path d="M524.027 97.1177C566.304 145.919 577.374 218.932 570.123 280.022C562.873 340.985 537.429 390.154 507.314 431.578C477.318 472.876 442.658 506.436 401.114 522.044C359.57 537.651 311.135 535.319 246.972 531.387C182.81 527.455 103.04 521.811 57.0359 478.9C11.0949 435.848 -1.07378 355.613 19.3319 288.379C39.8574 221.144 92.9714 166.811 150.856 120.715C208.74 74.6193 271.437 36.6404 339.651 29.9889C407.871 23.4923 481.624 48.1962 524.027 97.1177Z" fill="#E2DBFC"/>
<path d="M2.31714 174.72C2.31714 79.4372 79.5551 2.19189 174.838 2.19189C270.12 2.19189 347.358 79.4372 347.358 174.72C347.358 270.002 270.12 347.24 174.838 347.24C79.5551 347.24 2.31714 269.995 2.31714 174.72Z" stroke="#C6C6E5" stroke-width="3.06" stroke-linecap="round" stroke-linejoin="round"/>
<path d="M130.88 379.929C140.285 379.929 147.91 372.305 147.91 362.9C147.91 353.495 140.285 345.871 130.88 345.871C121.475 345.871 113.851 353.495 113.851 362.9C113.851 372.305 121.475 379.929 130.88 379.929Z" fill="#9EF5EE"/>
<path d="M146.884 418.533C152.369 418.533 156.815 414.087 156.815 408.602C156.815 403.118 152.369 398.671 146.884 398.671C141.399 398.671 136.953 403.118 136.953 408.602C136.953 414.087 141.399 418.533 146.884 418.533Z" fill="#9EF5EE"/>
<path d="M174.838 417.279C179.034 417.279 182.435 413.878 182.435 409.683C182.435 405.487 179.034 402.086 174.838 402.086C170.643 402.086 167.242 405.487 167.242 409.683C167.242 413.878 170.643 417.279 174.838 417.279Z" fill="#9EF5EE"/>
<path d="M224.777 348.828L235.938 390.468L266.422 359.984L224.777 348.828Z" fill="#9EF5EE"/>
<path d="M201.835 411.569L214.991 426.782L221.587 407.781L201.835 411.569Z" fill="#9EF5EE"/>
<path d="M174.791 370.083L199.73 398.911L212.229 362.9L174.791 370.083Z" fill="#9EF5EE"/>
<rect x="103.43" y="164.62" width="428.29" height="262.29" fill="#DDDDF5"/>
<path fill-rule="evenodd" clip-rule="evenodd" d="M99.7063 166.958C99.7063 163.092 102.84 159.958 106.706 159.958H529.295C533.161 159.958 536.295 163.092 536.295 166.958V455.495C536.295 459.361 533.161 462.495 529.295 462.495H365.466V480.362H428.534L449.871 492.628V496.656H318.005V481.853H318.003V496.656H186.137V492.628L207.474 480.362H270.539V462.495H106.706C102.84 462.495 99.7063 459.361 99.7063 455.495V166.958ZM105.563 171.317C105.563 169.66 106.906 168.317 108.563 168.317H527.435C529.092 168.317 530.435 169.66 530.435 171.317V418.958C530.435 420.615 529.092 421.958 527.435 421.958H108.563C106.906 421.958 105.563 420.615 105.563 418.958V171.317Z" fill="#2A2953"/>
<path d="M600.88 460.69C600.252 453.288 580.897 410.829 560.134 397.247" stroke="#BCBDED" stroke-width="4" stroke-linecap="round" stroke-linejoin="round"/>
<path d="M608.621 461.99C608.621 454.741 617.267 428.798 629.113 415.51" stroke="#BCBDED" stroke-width="4" stroke-linecap="round" stroke-linejoin="round"/>
<path fill-rule="evenodd" clip-rule="evenodd" d="M555.497 417.874L548.678 427.119L544.081 416.591L539.484 406.068L550.9 407.351L562.311 408.629L555.497 417.874Z" fill="#BCBDED"/>
<path fill-rule="evenodd" clip-rule="evenodd" d="M578.206 383.213L583.968 393.147H572.484H561L566.722 383.19L572.444 373.232L578.206 383.213Z" fill="#BCBDED"/>
<path d="M625.986 456.551H572.805V467.566H625.986V456.551Z" fill="#8D8DCB"/>
<path d="M618.878 467.565H579.918V503.42H618.878V467.565Z" fill="#5D5E96"/>
<path d="M621.355 414.414C625.209 414.414 628.333 411.29 628.333 407.436C628.333 403.582 625.209 400.458 621.355 400.458C617.502 400.458 614.378 403.582 614.378 407.436C614.378 411.29 617.502 414.414 621.355 414.414Z" fill="#BCBDED"/>
<path d="M594.932 424.298C601.318 424.298 606.495 419.121 606.495 412.734C606.495 406.348 601.318 401.171 594.932 401.171C588.545 401.171 583.368 406.348 583.368 412.734C583.368 419.121 588.545 424.298 594.932 424.298Z" fill="#BCBDED"/>
<path d="M635.31 440.328C639.163 440.328 642.287 437.204 642.287 433.35C642.287 429.497 639.163 426.373 635.31 426.373C631.456 426.373 628.332 429.497 628.332 433.35C628.332 437.204 631.456 440.328 635.31 440.328Z" fill="#BCBDED"/>
<path d="M468.148 211.144H182.466V390.468H468.148V211.144Z" fill="#BCBDED"/>
<rect x="182.466" y="211.144" width="285.682" height="26.2601" fill="#5D5E96"/>
<rect x="200.519" y="289.467" width="89.2885" height="4.18015" fill="white"/>
<rect x="200.519" y="319.994" width="73.3718" height="4.18015" fill="white"/>
<rect x="200.519" y="299.643" width="50.1746" height="4.18015" fill="white"/>
<rect x="200.519" y="347.24" width="41.2735" height="11.3394" fill="#292953"/>
<rect x="200.519" y="309.818" width="126.074" height="4.18015" fill="white"/>
<rect x="367.317" y="263.105" width="75.9311" height="95.4742" rx="8" fill="white"/>
<path d="M396.355 515.32H325.306L328.279 507.591H337.791L360.914 441.078C361.227 440.179 362.5 440.183 362.806 441.085L385.355 507.591H393.382L396.355 515.32Z" fill="#FBB03B"/>
<mask id="mask0_712_386" style="mask-type:alpha" maskUnits="userSpaceOnUse" x="325" y="440" width="72" height="76">
<path d="M396.355 515.321H325.306L328.279 507.592H337.791L360.914 441.078C361.227 440.179 362.5 440.184 362.806 441.085L385.355 507.592H393.382L396.355 515.321Z" fill="#FBB03B"/>
</mask>
<g mask="url(#mask0_712_386)">
<rect x="336.493" y="484.732" width="48.6701" height="8.97102" fill="white"/>
<rect x="336.493" y="464.664" width="48.6701" height="8.97102" fill="white"/>
<rect x="336.493" y="438.327" width="48.6701" height="15.2392" fill="white"/>
</g>
<path fill-rule="evenodd" clip-rule="evenodd" d="M204.674 468.302H201.866V513.623H204.674V468.302ZM203.269 516.823C208.211 516.823 212.217 516.107 212.217 515.223C212.217 514.34 208.211 513.623 203.269 513.623C198.327 513.623 194.321 514.34 194.321 515.223C194.321 516.107 198.327 516.823 203.269 516.823Z" fill="#2C3041"/>
<rect x="172.243" y="441.822" width="43.8799" height="43.8799" rx="6" transform="rotate(-45 172.243 441.822)" fill="#FBD84A"/>
<rect x="178.204" y="441.822" width="35.4483" height="35.4483" rx="5" transform="rotate(-45 178.204 441.822)" stroke="#2C3041" stroke-width="2"/>
<path d="M200.707 429.412H205.903L205.026 445.842H201.55L200.707 429.412ZM203.305 454.233C202.486 454.233 201.807 453.975 201.269 453.46C200.731 452.922 200.462 452.267 200.462 451.494C200.462 450.722 200.731 450.078 201.269 449.563C201.807 449.048 202.486 448.791 203.305 448.791C204.101 448.791 204.756 449.048 205.271 449.563C205.81 450.078 206.079 450.722 206.079 451.494C206.079 452.267 205.81 452.922 205.271 453.46C204.756 453.975 204.101 454.233 203.305 454.233Z" fill="#2C3041"/>
<path d="M482.309 423.667C489.157 423.667 494.708 418.116 494.708 411.268C494.708 404.42 489.157 398.869 482.309 398.869C475.461 398.869 469.91 404.42 469.91 411.268C469.91 418.116 475.461 423.667 482.309 423.667Z" fill="#A191EA"/>
<path d="M477.533 394.176C478.974 398.638 481.734 402.558 485.448 405.419C489.162 408.281 493.656 409.949 498.338 410.205" stroke="#BCBDED" stroke-width="4.49" stroke-linecap="round" stroke-linejoin="round"/>
<path d="M482.717 412.411C482.547 411.143 482.888 410.049 483.478 409.969C484.068 409.89 484.686 410.856 484.856 412.125C485.027 413.393 484.686 414.485 484.094 414.564C483.501 414.644 482.888 413.68 482.717 412.411Z" stroke="#BCBDED" stroke-width="4.49" stroke-linecap="round" stroke-linejoin="round"/>
<path fill-rule="evenodd" clip-rule="evenodd" d="M505.801 453.936C505.801 451.983 506.38 450.074 507.465 448.45C508.55 446.827 510.092 445.561 511.897 444.814C513.701 444.067 515.686 443.871 517.601 444.252C519.517 444.634 521.276 445.574 522.656 446.955C524.037 448.336 524.977 450.096 525.358 452.011C525.739 453.926 525.543 455.912 524.795 457.716C524.048 459.52 522.782 461.061 521.158 462.146C519.534 463.231 517.625 463.809 515.672 463.809C514.376 463.809 513.092 463.553 511.894 463.057C510.696 462.561 509.608 461.834 508.691 460.917C507.775 460 507.048 458.912 506.552 457.714C506.056 456.516 505.801 455.232 505.801 453.936V453.936Z" fill="#A191EA"/>
<path fill-rule="evenodd" clip-rule="evenodd" d="M443.344 453.936C443.344 451.983 443.923 450.074 445.008 448.45C446.092 446.827 447.634 445.561 449.438 444.814C451.243 444.067 453.228 443.871 455.143 444.252C457.058 444.633 458.817 445.573 460.198 446.954C461.579 448.335 462.519 450.094 462.9 452.009C463.281 453.925 463.086 455.91 462.338 457.714C461.591 459.518 460.326 461.06 458.702 462.145C457.078 463.23 455.169 463.809 453.217 463.809C450.598 463.809 448.087 462.769 446.235 460.917C444.384 459.065 443.344 456.554 443.344 453.936V453.936Z" fill="#A191EA"/>
<path d="M452.947 516.687C452.821 519.952 452.103 528.046 443.249 532.813L444.154 509.291L453.218 509.638L452.947 516.687Z" fill="#BCBDED"/>
<path d="M525.089 492.824C514.98 462.272 456.793 506.695 452.049 510.235C446.661 514.257 450.82 519.752 453.164 520.118C455.508 520.484 532.149 514.159 525.089 492.824Z" fill="#BCBDED"/>
<path fill-rule="evenodd" clip-rule="evenodd" d="M514.419 518.163C505.97 518.076 435.966 517.353 446.298 487.581C453.427 467.04 514.194 505.273 519.643 509.352L527.384 513.03L517.282 534.292C512.924 527.85 513.8 521.898 515.068 518.169C515.003 518.169 514.937 518.169 514.871 518.168C514.749 518.167 514.598 518.165 514.419 518.163Z" fill="#DDDDF5"/>
<rect x="451.154" y="438.408" width="67.4918" height="46.8888" rx="3" fill="#5644BA"/>
<rect x="53.3036" y="428.001" width="100.251" height="30.7077" rx="4" fill="#F2A62E"/>
<mask id="mask1_712_386" style="mask-type:alpha" maskUnits="userSpaceOnUse" x="53" y="428" width="101" height="31">
<rect x="53.3036" y="428.001" width="100.251" height="30.7077" rx="4" fill="#F2A62E"/>
</mask>
<g mask="url(#mask1_712_386)">
<rect x="81.3909" y="416.114" width="13.3819" height="54.4352" transform="rotate(42.6052 81.3909 416.114)" fill="white"/>
<rect x="116.928" y="416.114" width="13.3819" height="61.531" transform="rotate(42.6052 116.928 416.114)" fill="white"/>
<rect x="152.468" y="416.114" width="13.3819" height="63.8393" transform="rotate(42.6052 152.468 416.114)" fill="white"/>
</g>
<rect x="66.1746" y="458.709" width="12.4671" height="33.756" fill="#BCBDED"/>
<rect x="130.038" y="458.709" width="12.4671" height="33.756" fill="#BCBDED"/>
<rect x="54.3225" y="492.464" width="98.2171" height="16.7263" rx="2" fill="#2A2953"/>
<path d="M207.553 218.056H192.451V233.158H207.553V218.056Z" fill="#FE697D"/>
<path d="M223.963 234.033C228.375 234.033 231.952 230.457 231.952 226.044C231.952 221.632 228.375 218.056 223.963 218.056C219.551 218.056 215.974 221.632 215.974 226.044C215.974 230.457 219.551 234.033 223.963 234.033Z" fill="#FEC246"/>
<path d="M248.701 218.056L240.372 232.483H257.03L248.701 218.056Z" fill="#59D090"/>
</svg>
