<svg width="521" height="432" viewBox="0 0 521 432" fill="none" xmlns="http://www.w3.org/2000/svg">
<path d="M72.655 80.106L161.104 189.436L2.00081 229.314L72.655 80.106Z" stroke="#E5E5E5" stroke-width="3.06" stroke-linecap="round" stroke-linejoin="round"/>
<path d="M142.422 160.385C153.901 172.145 192.46 215.637 192.147 226.545C191.833 237.452 81.5458 263.862 81.5458 263.862V247.583L105.322 236.978L142.386 160.88" fill="#F2F2F2"/>
<path d="M111.421 58.7658C102.433 58.7658 95.1463 51.4795 95.1463 42.4913C95.1463 33.5031 102.433 26.2168 111.421 26.2168C120.409 26.2168 127.695 33.5031 127.695 42.4913C127.695 51.4795 120.409 58.7658 111.421 58.7658Z" fill="#8CE08C"/>
<path d="M122.664 39.5123C122.885 37.8478 122.439 36.4125 121.663 36.296C120.887 36.1794 120.079 37.4578 119.858 39.1102C119.637 40.7626 120.079 42.2099 120.855 42.3265C121.631 42.4431 122.439 41.1767 122.664 39.5123Z" stroke="#C9F4E7" stroke-width="3.65" stroke-linecap="round" stroke-linejoin="round"/>
<path d="M115.042 69.0303L168.26 160.88L70.6288 140.159L115.042 69.0303Z" fill="#FE697D"/>
<path d="M117.307 0L127.695 22.4257L103.083 20.2065L117.307 0Z" fill="#2B7C63"/>
<path d="M121.57 328.369C127.199 328.369 141.19 329.069 149.99 344.004H109.412V328.369H121.57Z" fill="#C2C2C2"/>
<path d="M82.5547 259.749C82.5547 265.377 81.8551 279.368 66.9194 288.169V247.591H82.5547V259.749Z" fill="#777777"/>
<path d="M142.422 160.385L87.2903 149.039L109.41 328.368L129.159 330.194L142.422 160.385Z" fill="#C2C2C2"/>
<path fill-rule="evenodd" clip-rule="evenodd" d="M100.193 172.715C100.193 169.986 99.3841 167.319 97.868 165.05C96.3518 162.781 94.1969 161.012 91.6756 159.968C89.1544 158.923 86.3801 158.65 83.7035 159.183C81.027 159.715 78.5685 161.029 76.6388 162.959C74.7091 164.888 73.395 167.347 72.8626 170.024C72.3302 172.7 72.6034 175.474 73.6478 177.996C74.6921 180.517 76.4606 182.672 78.7297 184.188C80.9987 185.704 83.6664 186.513 86.3954 186.513C90.0545 186.512 93.5635 185.058 96.1509 182.471C98.7382 179.884 100.192 176.375 100.193 172.715Z" fill="#7C5443"/>
<path d="M261.207 23.2173L266.707 25.7421L261.766 29.2398L261.207 23.2173Z" stroke="#FE697D" stroke-width="3" stroke-linecap="round" stroke-linejoin="round"/>
<path d="M212.568 122.195C209.781 122.195 207.522 119.936 207.522 117.149C207.522 114.363 209.781 112.104 212.568 112.104C215.354 112.104 217.613 114.363 217.613 117.149C217.613 119.936 215.354 122.195 212.568 122.195Z" stroke="#9EF5EE" stroke-width="5.14" stroke-linecap="round" stroke-linejoin="round"/>
<path d="M125.574 87.2141L107.667 80.8418" stroke="#9EF5EE" stroke-width="5.14" stroke-linecap="round" stroke-linejoin="round"/>
<path d="M136.73 106.468L99.8555 93.3491" stroke="#9EF5EE" stroke-width="5.14" stroke-linecap="round" stroke-linejoin="round"/>
<path d="M147.891 125.725L92.0475 105.856" stroke="#9EF5EE" stroke-width="5.14" stroke-linecap="round" stroke-linejoin="round"/>
<path d="M159.049 144.983L84.2335 118.368" stroke="#9EF5EE" stroke-width="5.14" stroke-linecap="round" stroke-linejoin="round"/>
<path d="M149.68 156.94L76.4243 130.875" stroke="#9EF5EE" stroke-width="5.14" stroke-linecap="round" stroke-linejoin="round"/>
<path d="M124.014 96.4893L137.422 119.631" stroke="white" stroke-width="16" stroke-linecap="round" stroke-linejoin="round"/>
<path d="M175.594 111.187L138.282 117.57" stroke="white" stroke-width="16" stroke-linecap="round" stroke-linejoin="round"/>
<path fill-rule="evenodd" clip-rule="evenodd" d="M195.553 111.618C195.554 108.889 194.745 106.22 193.229 103.951C191.713 101.681 189.558 99.9118 187.037 98.867C184.515 97.8222 181.741 97.5486 179.064 98.0809C176.387 98.6131 173.928 99.9273 171.998 101.857C170.068 103.787 168.754 106.246 168.222 108.923C167.689 111.6 167.963 114.375 169.008 116.896C170.053 119.417 171.822 121.572 174.092 123.088C176.361 124.604 179.029 125.413 181.759 125.412C185.417 125.412 188.926 123.959 191.513 121.372C194.099 118.785 195.553 115.276 195.553 111.618Z" fill="#7C5443"/>
<path fill-rule="evenodd" clip-rule="evenodd" d="M220.371 128.59H180.047L214.458 34.0708H254.783L220.371 128.59Z" fill="#FEFDDB"/>
<path fill-rule="evenodd" clip-rule="evenodd" d="M188.941 9.8916L183.344 25.2784H201.926L207.523 9.8916H188.941Z" fill="#9EF5EE"/>
<path opacity="0.75" fill-rule="evenodd" clip-rule="evenodd" d="M243.573 102.212L233.9 128.589H274.779L284.457 102.212H243.573Z" fill="#9EF5EE"/>
<path d="M208.073 14.2875C210.804 14.2875 213.018 12.0732 213.018 9.34175C213.018 6.61028 210.804 4.396 208.073 4.396C205.341 4.396 203.127 6.61028 203.127 9.34175C203.127 12.0732 205.341 14.2875 208.073 14.2875Z" fill="#FE697D"/>
<path d="M244.891 38.4668L234.099 49.4573L230.604 44.75" stroke="#9EF5EE" stroke-width="5.14" stroke-linecap="round" stroke-linejoin="round"/>
<path d="M240.495 59.3491L229.702 69.2406L226.207 65.004" stroke="#9EF5EE" stroke-width="5.14" stroke-linecap="round" stroke-linejoin="round"/>
<path d="M230.604 81.3301L219.812 92.3206L216.316 87.6082" stroke="#9EF5EE" stroke-width="5.14" stroke-linecap="round" stroke-linejoin="round"/>
<path d="M333.832 211.884C333.832 160.882 375.175 119.535 426.177 119.535C477.179 119.535 518.523 160.882 518.523 211.884C518.523 262.886 477.179 304.213 426.177 304.213C375.175 304.213 333.832 262.886 333.832 211.884Z" stroke="#E5E5E5" stroke-width="3.06" stroke-linecap="round" stroke-linejoin="round"/>
<path fill-rule="evenodd" clip-rule="evenodd" d="M376.208 248.091C375.417 250.179 353.32 317.407 353.32 322.357C353.32 327.307 441.463 379.194 448.943 380.618C453.039 378.838 453.047 370.82 453.047 366.724C453.047 362.628 420.722 339.444 420.722 339.444L376.208 248.091Z" fill="#D5D5D5"/>
<path d="M387.666 174.814H355.246V240.619H387.666V174.814Z" fill="#9EF5EE"/>
<path fill-rule="evenodd" clip-rule="evenodd" d="M406.29 163.305C437.678 163.305 433.756 228.402 431.898 235.55C427.506 240.935 389.503 243.556 376.085 235.55C371.067 223.29 376.599 163.305 406.29 163.305Z" fill="#FE697D"/>
<path d="M406.288 151.998C415.61 151.998 423.166 144.441 423.166 135.12C423.166 125.798 415.61 118.242 406.288 118.242C396.967 118.242 389.41 125.798 389.41 135.12C389.41 144.441 396.967 151.998 406.288 151.998Z" fill="#FFCD67"/>
<path d="M394.117 119.894C397.236 125.462 401.969 129.954 407.693 132.777C413.416 135.6 419.861 136.623 426.177 135.709" stroke="#FFAE05" stroke-width="3.85" stroke-linecap="round" stroke-linejoin="round"/>
<path d="M404.134 139.532C403.564 137.883 403.738 136.333 404.493 136.068C405.249 135.804 406.34 136.926 406.909 138.575C407.478 140.224 407.304 141.774 406.549 142.035C405.794 142.295 404.699 141.177 404.134 139.532Z" stroke="#FFAE05" stroke-width="3.85" stroke-linecap="round" stroke-linejoin="round"/>
<path fill-rule="evenodd" clip-rule="evenodd" d="M345.344 196.069C345.344 194.114 345.923 192.203 347.01 190.578C348.096 188.952 349.639 187.686 351.445 186.937C353.251 186.189 355.239 185.994 357.156 186.375C359.073 186.756 360.835 187.698 362.217 189.08C363.599 190.462 364.541 192.224 364.922 194.141C365.303 196.058 365.108 198.046 364.36 199.852C363.611 201.658 362.345 203.201 360.719 204.288C359.094 205.374 357.183 205.953 355.228 205.953C352.608 205.948 350.097 204.905 348.245 203.053C346.392 201.2 345.349 198.689 345.344 196.069Z" fill="#FFCD67"/>
<path d="M319.763 146.925H305.993C301.556 146.925 297.959 150.522 297.959 154.959V168.729C297.959 173.166 301.556 176.763 305.993 176.763H319.763C324.2 176.763 327.797 173.166 327.797 168.729V154.959C327.797 150.522 324.2 146.925 319.763 146.925Z" fill="#FE697D"/>
<path d="M327.8 153.512C331.437 153.512 334.386 150.563 334.386 146.926C334.386 143.288 331.437 140.339 327.8 140.339C324.162 140.339 321.213 143.288 321.213 146.926C321.213 150.563 324.162 153.512 327.8 153.512Z" fill="#9EF5EE"/>
<path d="M416.065 165.868C414.58 169.18 413.821 172.771 413.84 176.401C413.859 180.031 414.655 183.614 416.175 186.911C417.694 190.207 419.903 193.14 422.65 195.511C425.398 197.883 428.622 199.638 432.105 200.66" stroke="#9EF5EE" stroke-width="5.14" stroke-linecap="round" stroke-linejoin="round"/>
<path d="M374.443 218.15C379.84 218.152 385.097 216.435 389.452 213.247C393.807 210.06 397.034 205.568 398.664 200.424C400.294 195.279 400.243 189.749 398.518 184.635C396.794 179.521 393.485 175.09 389.072 171.983" stroke="#9EF5EE" stroke-width="5.14" stroke-linecap="round" stroke-linejoin="round"/>
<path d="M433.048 213.315C428.834 210.666 423.934 209.314 418.958 209.425C413.981 209.537 409.147 211.108 405.056 213.943C400.964 216.778 397.795 220.752 395.943 225.372C394.09 229.992 393.635 235.055 394.635 239.931" stroke="#9EF5EE" stroke-width="5.14" stroke-linecap="round" stroke-linejoin="round"/>
<path fill-rule="evenodd" clip-rule="evenodd" d="M402.111 214.315L388.981 211.742L385.838 189.024L398.968 191.598L402.111 214.315Z" fill="#383838"/>
<path fill-rule="evenodd" clip-rule="evenodd" d="M393.975 211.884C393.975 209.929 394.554 208.018 395.64 206.393C396.726 204.767 398.27 203.5 400.076 202.752C401.882 202.004 403.87 201.809 405.787 202.19C407.704 202.571 409.466 203.513 410.848 204.895C412.23 206.277 413.172 208.038 413.553 209.956C413.934 211.873 413.739 213.861 412.99 215.667C412.242 217.473 410.975 219.016 409.35 220.102C407.725 221.189 405.814 221.768 403.859 221.768C401.239 221.763 398.728 220.72 396.875 218.867C395.023 217.015 393.98 214.504 393.975 211.884Z" fill="#FFCD67"/>
<path d="M412.619 173.703C418.945 179.515 422.503 189.577 424.361 200.193" stroke="white" stroke-width="16.23" stroke-linecap="round" stroke-linejoin="round"/>
<path d="M417.29 398.693C410.891 398.8 391.698 397.095 386.017 415.559L430.52 415.559L430.52 398.042L417.29 398.693Z" fill="#C7C7C7"/>
<path d="M417.29 398.693C410.891 398.8 391.698 397.095 386.017 415.559L430.52 415.559L430.52 398.042L417.29 398.693Z" fill="#C7C7C7"/>
<path d="M417.29 398.693C410.891 398.8 391.698 397.095 386.017 415.559L430.52 415.559L430.52 398.042L417.29 398.693Z" fill="#C7C7C7"/>
<path fill-rule="evenodd" clip-rule="evenodd" d="M376.211 248.091C380.291 249.673 417.973 253.271 430.376 248.091C431.629 258.138 430.443 415.331 430.443 415.331H386.403C386.403 409.515 395.101 399.121 412.826 398.947C411.77 391.024 376.211 248.091 376.211 248.091Z" fill="#F2F2F2"/>
<path d="M441.77 372.968C437.479 377.716 423.127 390.573 432.737 407.331L463.126 374.819L450.328 362.858L441.77 372.968Z" fill="#C7C7C7"/>
<path d="M441.77 372.968C437.479 377.716 423.127 390.573 432.737 407.331L463.126 374.819L450.328 362.858L441.77 372.968Z" fill="#C7C7C7"/>
<path d="M441.77 372.968C437.479 377.716 423.127 390.573 432.737 407.331L463.126 374.819L450.328 362.858L441.77 372.968Z" fill="#C7C7C7"/>
</svg>
