<svg width="642" height="520" viewBox="0 0 642 520" fill="none" xmlns="http://www.w3.org/2000/svg">
<path d="M481.663 110.981C523.842 149.452 570.628 187.016 575.242 229.307C579.857 271.598 542.399 318.496 500.22 351.121C458.042 383.746 411.124 402.065 348.045 418.265C284.966 434.465 205.767 448.407 159.087 415.789C112.407 383.17 98.2391 303.991 117.246 243.706C136.141 183.302 188.216 142.024 234.896 103.56C281.577 65.0956 322.848 29.6635 362.438 31.4642C401.921 33.3775 439.485 72.5171 481.663 110.981Z" fill="#5D5E96"/>
<path d="M449.256 2.32178L370.957 220.224L639.975 196.086L449.256 2.32178Z" stroke="#8D8DCB" stroke-width="3.06" stroke-linecap="round" stroke-linejoin="round"/>
<path d="M588.476 89.9023H154.863V328.394H588.476V89.9023Z" fill="#F1F1F1"/>
<path d="M180.935 97H163V114.935H180.935V97Z" fill="#FE697D"/>
<path d="M200.422 115.974C205.661 115.974 209.908 111.726 209.908 106.487C209.908 101.247 205.661 97 200.422 97C195.182 97 190.935 101.247 190.935 106.487C190.935 111.726 195.182 115.974 200.422 115.974Z" fill="#FEC246"/>
<path d="M229.799 97L219.908 114.133H239.69L229.799 97Z" fill="#59D090"/>
<path d="M135.021 120.873H588.469" stroke="#BCBDED" stroke-width="3.06" stroke-linecap="round" stroke-linejoin="round"/>
<path d="M590.21 420.721C589.475 412.055 566.814 362.343 542.504 346.441" stroke="#BCBDED" stroke-width="4" stroke-linecap="round" stroke-linejoin="round"/>
<path d="M599.273 422.244C599.273 413.757 609.396 383.383 623.266 367.825" stroke="#BCBDED" stroke-width="4" stroke-linecap="round" stroke-linejoin="round"/>
<path d="M155.306 395.988C155.306 358.523 229.275 298.953 249.467 298.953C271.4 298.953 369.746 407.891 369.746 417.815C369.746 427.739 329.772 418.358 327.216 415.054C324.661 411.751 263.376 378.152 259.318 378.152C255.26 378.152 238.908 397.908 237.703 401.516C236.498 405.124 155.306 395.988 155.306 395.988Z" fill="#BCBDED"/>
<path d="M422.18 434.108C422.18 424.839 423.332 401.801 447.933 387.309V454.141H422.18V434.108Z" fill="#DDDDF5"/>
<path fill-rule="evenodd" clip-rule="evenodd" d="M134.273 245.957C134.278 242.368 135.348 238.861 137.345 235.879C139.343 232.897 142.18 230.575 145.498 229.205C148.815 227.835 152.464 227.479 155.984 228.183C159.503 228.886 162.736 230.617 165.272 233.157C167.808 235.697 169.534 238.931 170.232 242.452C170.931 245.972 170.57 249.621 169.195 252.937C167.82 256.252 165.493 259.086 162.509 261.079C159.524 263.073 156.015 264.137 152.426 264.137C150.04 264.137 147.677 263.666 145.473 262.752C143.269 261.838 141.267 260.499 139.581 258.81C137.895 257.122 136.558 255.118 135.647 252.912C134.737 250.707 134.27 248.343 134.273 245.957Z" fill="#2A2953"/>
<path fill-rule="evenodd" clip-rule="evenodd" d="M24.9116 501.211C24.9116 497.621 25.9763 494.111 27.971 491.126C29.9656 488.141 32.8007 485.814 36.1178 484.44C39.4348 483.066 43.0848 482.706 46.6061 483.407C50.1274 484.107 53.362 485.836 55.9007 488.375C58.4395 490.914 60.1684 494.148 60.8688 497.67C61.5693 501.191 61.2098 504.841 59.8358 508.158C58.4619 511.475 56.1351 514.31 53.1499 516.305C50.1647 518.3 46.655 519.364 43.0646 519.364C38.2502 519.364 33.6329 517.452 30.2285 514.047C26.8242 510.643 24.9116 506.026 24.9116 501.211V501.211Z" fill="#2A2953"/>
<path fill-rule="evenodd" clip-rule="evenodd" d="M60.4892 252.538C59.3091 247.733 56.7305 243.385 53.0793 240.045C49.4282 236.705 44.8686 234.523 39.9771 233.774C35.0857 233.026 30.0822 233.745 25.5993 235.84C21.1164 237.935 17.3556 241.313 14.7924 245.546C12.2292 249.778 10.9788 254.676 11.1993 259.62C11.4198 264.563 13.1014 269.33 16.0312 273.318C18.9611 277.306 23.0078 280.335 27.6594 282.023C32.3111 283.71 37.3587 283.981 42.1641 282.8C48.6058 281.215 54.1546 277.137 57.5908 271.462C61.027 265.788 62.0696 258.981 60.4892 252.538Z" fill="#2A2953"/>
<path d="M51.5326 249.413C51.0162 247.315 49.8047 245.812 48.8315 246.05C47.8583 246.289 47.5074 248.189 47.9973 250.281C48.4872 252.373 49.7186 253.882 50.6984 253.644C51.6782 253.405 52.0489 251.512 51.5326 249.413Z" stroke="#5D5E96" stroke-width="2.85" stroke-linecap="round" stroke-linejoin="round"/>
<path d="M5.36057 188.885L5.3546 188.888C2.39733 190.306 1.14964 193.853 2.56779 196.81L16.8667 226.628C18.2849 229.585 21.8318 230.833 24.7891 229.414L24.7951 229.412C27.7523 227.993 29 224.446 27.5819 221.489L13.283 191.672C11.8648 188.714 8.31783 187.467 5.36057 188.885Z" fill="#2A2953"/>
<path d="M11.408 195.25L11.402 195.253C10.8745 195.506 10.652 196.139 10.9049 196.666L15.989 207.268C16.2419 207.795 16.8746 208.018 17.4021 207.765L17.4081 207.762C17.9356 207.509 18.1581 206.876 17.9052 206.349L12.8211 195.747C12.5682 195.22 11.9355 194.997 11.408 195.25Z" fill="white"/>
<path fill-rule="evenodd" clip-rule="evenodd" d="M537.076 370.592L529.091 381.416L523.709 369.089L518.327 356.769L531.693 358.271L545.053 359.768L537.076 370.592Z" fill="#BCBDED"/>
<path fill-rule="evenodd" clip-rule="evenodd" d="M563.663 330.01L570.409 341.642H556.963H543.517L550.217 329.983L556.917 318.325L563.663 330.01Z" fill="#BCBDED"/>
<path d="M42.608 293.591C97.2524 273.028 139.543 375.061 134.631 386.514C129.719 397.967 74.8823 424.647 67.5535 421.278C52.426 414.326 9.09581 306.196 42.608 293.591Z" fill="#A191EA"/>
<path d="M619.604 415.875H557.34V428.772H619.604V415.875Z" fill="#8D8DCB"/>
<path d="M611.282 428.772H565.668V470.752H611.282V428.772Z" fill="#5D5E96"/>
<path d="M614.183 366.54C618.695 366.54 622.353 362.883 622.353 358.371C622.353 353.859 618.695 350.201 614.183 350.201C609.671 350.201 606.014 353.859 606.014 358.371C606.014 362.883 609.671 366.54 614.183 366.54Z" fill="#BCBDED"/>
<path d="M583.245 378.113C590.722 378.113 596.784 372.051 596.784 364.574C596.784 357.097 590.722 351.036 583.245 351.036C575.768 351.036 569.707 357.097 569.707 364.574C569.707 372.051 575.768 378.113 583.245 378.113Z" fill="#BCBDED"/>
<path d="M630.521 396.882C635.033 396.882 638.691 393.224 638.691 388.712C638.691 384.2 635.033 380.542 630.521 380.542C626.01 380.542 622.352 384.2 622.352 388.712C622.352 393.224 626.01 396.882 630.521 396.882Z" fill="#BCBDED"/>
<path d="M69.0501 292.63L34.5051 350.837" stroke="#BCBDED" stroke-width="5.14" stroke-linecap="round" stroke-linejoin="round"/>
<path d="M98.6558 312.631L49.9366 394.71" stroke="#BCBDED" stroke-width="5.14" stroke-linecap="round" stroke-linejoin="round"/>
<path d="M120.569 343.799L74.9883 420.602" stroke="#BCBDED" stroke-width="5.14" stroke-linecap="round" stroke-linejoin="round"/>
<path d="M72.1617 307.302C81.1191 312.552 89.2952 320.403 96.432 329.321" stroke="white" stroke-width="16.23" stroke-linecap="round" stroke-linejoin="round"/>
<path d="M183.82 344.375C167.745 361.542 155.306 380.622 155.306 396.014C155.306 396.014 236.498 405.15 237.703 401.542C238.802 398.232 252.459 381.575 257.954 378.629C239.702 367.07 208.044 352.691 183.82 344.375Z" fill="#2A2953"/>
<path d="M84.1499 439.411C91.7037 437.756 140.794 408.255 154.988 394.333C188.262 381.82 268.977 402.588 287.395 404.482C305.812 406.375 426.329 427.587 426.329 427.587C432.466 431.97 427.111 451.42 422.159 454.982H89.5786C89.5786 454.982 81.3164 446.958 84.1499 439.411Z" fill="#DDDDF5"/>
<path d="M335.519 221.205H327.583V212.181H319.775V221.205H305.119L325.919 193.621H317.023L294.943 222.485V228.245H319.519V238.421H327.583V228.245H335.519V221.205ZM357.709 239.061C368.397 239.061 376.461 230.741 376.461 216.021C376.461 201.301 368.397 192.981 357.709 192.981C347.085 192.981 339.021 201.301 339.021 216.021C339.021 230.741 347.085 239.061 357.709 239.061ZM357.709 231.829C351.629 231.829 347.405 226.837 347.405 216.021C347.405 205.205 351.629 200.213 357.709 200.213C363.853 200.213 368.077 205.205 368.077 216.021C368.077 226.837 363.853 231.829 357.709 231.829ZM422.019 221.205H414.083V212.181H406.275V221.205H391.619L412.419 193.621H403.523L381.443 222.485V228.245H406.019V238.421H414.083V228.245H422.019V221.205Z" fill="#5645BA"/>
</svg>
