<svg width="522" height="566" viewBox="0 0 522 566" fill="none" xmlns="http://www.w3.org/2000/svg">
<rect width="522" height="566" fill="white"/>
<path d="M467.365 299.889C472.936 170.919 371.878 61.8073 241.644 56.1811C127.053 51.2307 90.9158 101.111 86.3054 128.828C81.6949 156.545 112.465 208.486 176.1 246.02C239.736 283.553 222.954 271.643 250.374 291.906C285.832 318.108 298.661 325.331 333.451 368.351C368.241 411.37 366.625 459.245 371.439 477.215C371.439 477.215 447.974 436.369 467.365 299.889Z" fill="#0047FF" fill-opacity="0.86"/>
<path d="M460.61 229.43C494.515 355.963 418.419 486.294 290.644 520.531C178.218 550.656 82.9941 489.503 96.5805 452.158C110.167 414.813 136.689 422.151 183.934 346.899C188.426 345.695 238.196 252.914 203.331 158.736C168.467 64.5575 90.8972 96.9173 134.941 74.2098C143.154 69.9756 153.975 66.033 167.865 62.3113C295.639 28.0743 426.706 102.896 460.61 229.43Z" fill="#2B99FF" fill-opacity="0.8"/>
<path d="M463.998 235.62C493.598 360.591 403.819 499.221 324.838 495.606C291.015 494.058 276.324 465.731 276.961 444.813C277.987 411.113 337.401 346.856 337.401 346.856C480.076 212.694 344.184 68.8267 399.262 121.907C430.263 151.784 453.338 190.611 463.998 235.62Z" fill="url(#paint0_linear_117_736)" fill-opacity="0.68"/>
<defs>
<linearGradient id="paint0_linear_117_736" x1="517.296" y1="155.938" x2="232.839" y2="488.574" gradientUnits="userSpaceOnUse">
<stop stop-color="#2AD1FD"/>
<stop offset="1" stop-color="#2AFDCA" stop-opacity="0.99"/>
</linearGradient>
</defs>
</svg>
