<svg width="238" height="374" viewBox="0 0 238 374" fill="none" xmlns="http://www.w3.org/2000/svg">
<path fill-rule="evenodd" clip-rule="evenodd" d="M108.492 191.408C102.954 170.062 101.947 99.0211 137.682 95.5883C162.246 93.2246 185.177 158.386 183.799 181.237C168.817 196.266 122.733 201.019 108.492 191.408Z" fill="#5645BA"/>
<path d="M165.231 114.269C158.881 126.085 155.699 139.346 155.996 152.758C156.293 166.17 160.059 179.276 166.926 190.801" stroke="#9EF5EE" stroke-width="5.14" stroke-linecap="round" stroke-linejoin="round"/>
<path d="M108.027 184.55C122.397 175.284 133.307 161.534 139.065 145.435C144.824 129.336 145.108 111.786 139.875 95.5083" stroke="#9EF5EE" stroke-width="5.14" stroke-linecap="round" stroke-linejoin="round"/>
<path d="M81.9757 60.5476L2 159.433L145.907 195.506L81.9757 60.5476Z" stroke="#E5E5E5" stroke-width="3.06" stroke-linecap="round" stroke-linejoin="round"/>
<path d="M129.98 86.7589C139.973 86.7589 148.075 78.6576 148.075 68.6641C148.075 58.6707 139.973 50.5693 129.98 50.5693C119.986 50.5693 111.885 58.6707 111.885 68.6641C111.885 78.6576 119.986 86.7589 129.98 86.7589Z" fill="#FE697D"/>
<path d="M120.398 50.0894C122.502 56.6006 126.53 62.3214 131.95 66.4975C137.371 70.6736 143.93 73.1089 150.762 73.4824" stroke="#EE4A39" stroke-width="4.49" stroke-linecap="round" stroke-linejoin="round"/>
<path d="M117.478 65.355C117.227 63.5041 117.725 61.9077 118.587 61.7913C119.449 61.675 120.354 63.0932 120.598 64.9368C120.842 66.7805 120.347 68.3805 119.489 68.4969C118.631 68.6133 117.725 67.206 117.478 65.355Z" stroke="#EE4A39" stroke-width="4.49" stroke-linecap="round" stroke-linejoin="round"/>
<path d="M142.857 247.619C146.493 253.801 157.177 273.634 158.959 275.838C160.74 278.042 221.243 315.497 221.243 315.497C219.716 319.224 217.007 338.377 227.512 342.53C229.378 336.173 237.174 308.126 237.174 308.126L228.956 306.006L191.414 261.009C191.414 261.009 188.795 200.702 180.915 193.328C173.202 197.48 142.857 247.619 142.857 247.619Z" fill="#ECECEC"/>
<path d="M175.893 287.097C166.668 281.224 159.551 276.573 158.959 275.824C157.177 273.62 146.5 253.791 142.857 247.605C142.857 247.605 173.202 197.466 180.915 193.313C186.174 198.234 189.083 226.576 190.435 244.991C187.359 260.765 182.759 276.111 175.893 287.097Z" fill="#BFBFBF"/>
<path d="M180.915 193.328C174.37 197.433 132.235 208.808 121.045 210.113C116.194 218.135 72.3537 316.984 72.3537 316.984C67.3173 313.067 48.8515 307.656 42.6987 314.933C48.6661 318.849 78.8811 339.362 78.8811 339.362C78.8811 339.362 179.992 208.437 180.915 193.328Z" fill="white"/>
<path d="M116.471 93.1118L111.5 95.3991L115.965 98.5628L116.471 93.1118Z" stroke="#FE697D" stroke-width="3" stroke-linecap="round" stroke-linejoin="round"/>
<path d="M169.363 102.046L70.9819 113.011L73.616 136.643L171.997 125.678L169.363 102.046Z" fill="#FEFDDB"/>
<path d="M126.504 113.687L78.8134 119.003C78.013 119.092 77.4365 119.813 77.5257 120.614L78.3257 127.791C78.4149 128.592 79.1361 129.168 79.9364 129.079L127.627 123.763C128.428 123.674 129.004 122.953 128.915 122.153L128.115 114.975C128.026 114.175 127.305 113.598 126.504 113.687Z" fill="#8CE08C"/>
<path d="M164.487 109.451L148.994 111.178L150.117 121.254L165.61 119.527L164.487 109.451Z" fill="#8CE08C"/>
<path d="M146.492 98.6634L119.658 136.464C117.488 139.522 118.207 143.76 121.265 145.93L126.056 149.332C129.114 151.502 133.352 150.783 135.523 147.726L162.356 109.925C164.527 106.867 163.808 102.629 160.75 100.459L155.958 97.0573C152.901 94.8868 148.663 95.6059 146.492 98.6634Z" fill="#9EF5EE"/>
<path d="M67.6883 100.532L46.7589 109.485C44.087 110.628 42.8476 113.72 43.9905 116.392L52.9436 137.321C54.0865 139.993 57.1791 141.233 59.8509 140.09L80.7803 131.137C83.4522 129.994 84.6916 126.901 83.5487 124.229L74.5956 103.3C73.4527 100.628 70.3601 99.3887 67.6883 100.532Z" fill="#9EF5EE"/>
<path d="M62.6409 126.752C66.4487 126.752 69.5355 123.665 69.5355 119.858C69.5355 116.05 66.4487 112.963 62.6409 112.963C58.833 112.963 55.7462 116.05 55.7462 119.858C55.7462 123.665 58.833 126.752 62.6409 126.752Z" stroke="#2B7C63" stroke-width="4.49" stroke-linecap="round" stroke-linejoin="round"/>
<path d="M73.9538 124.388L69.0337 122.417" stroke="#2B7C63" stroke-width="4.49" stroke-linecap="round" stroke-linejoin="round"/>
<path d="M147.249 136.934H53.4007C51.5832 136.934 50.1097 138.407 50.1097 140.225V186.371C50.1097 188.189 51.5832 189.662 53.4007 189.662H147.249C149.067 189.662 150.54 188.189 150.54 186.371V140.225C150.54 138.407 149.067 136.934 147.249 136.934Z" fill="white"/>
<path fill-rule="evenodd" clip-rule="evenodd" d="M128.529 188.441C128.528 185.972 129.258 183.558 130.629 181.505C131.999 179.452 133.948 177.851 136.228 176.905C138.509 175.96 141.018 175.711 143.44 176.192C145.861 176.673 148.085 177.861 149.831 179.606C151.578 181.351 152.767 183.575 153.249 185.996C153.731 188.417 153.484 190.927 152.54 193.208C151.596 195.488 149.996 197.438 147.944 198.81C145.891 200.181 143.478 200.913 141.009 200.913C137.701 200.913 134.527 199.6 132.187 197.261C129.847 194.922 128.531 191.749 128.529 188.441Z" fill="#FE697D"/>
<path fill-rule="evenodd" clip-rule="evenodd" d="M35.2623 173.64C35.2623 171.172 35.9943 168.759 37.3656 166.707C38.737 164.654 40.6861 163.055 42.9665 162.11C45.247 161.166 47.7563 160.918 50.1773 161.4C52.5982 161.882 54.8219 163.07 56.5673 164.816C58.3127 166.561 59.5013 168.785 59.9829 171.206C60.4644 173.626 60.2173 176.136 59.2727 178.416C58.3281 180.697 56.7285 182.646 54.6761 184.017C52.6238 185.389 50.2108 186.121 47.7425 186.121C46.1034 186.121 44.4804 185.799 42.966 185.171C41.4516 184.544 40.0756 183.625 38.9166 182.466C37.7576 181.307 36.8384 179.931 36.2114 178.417C35.5843 176.902 35.2619 175.279 35.2623 173.64Z" fill="#FE697D"/>
<path d="M150.62 147.254L150.537 140.222C150.537 139.354 150.192 138.521 149.578 137.907C148.964 137.294 148.132 136.949 147.264 136.949H53.4007C52.5327 136.949 51.7003 137.294 51.0865 137.907C50.4727 138.521 50.1279 139.354 50.1279 140.222V149.276C79.1356 143.094 150.322 147.313 150.62 147.254Z" fill="#EAEAEA"/>
<path d="M152.369 107.636L134.173 133.265" stroke="#2B7C63" stroke-width="4.49" stroke-linecap="round" stroke-linejoin="round"/>
<path d="M153.002 128.025H47.317C45.6762 128.025 44.3461 129.355 44.3461 130.996V138.836C44.3461 140.477 45.6762 141.807 47.317 141.807H153.002C154.643 141.807 155.973 140.477 155.973 138.836V130.996C155.973 129.355 154.643 128.025 153.002 128.025Z" fill="white"/>
<path d="M84.972 106.13V112.705C84.9722 112.953 85.0375 113.197 85.1615 113.411C85.2856 113.626 85.4639 113.805 85.6787 113.929C85.8935 114.053 86.1371 114.118 86.3852 114.119C86.6333 114.119 86.8771 114.054 87.0921 113.93L92.7867 110.657C93.0019 110.533 93.1807 110.355 93.305 110.14C93.4293 109.925 93.4947 109.68 93.4947 109.432C93.4947 109.184 93.4293 108.939 93.305 108.724C93.1807 108.509 93.0019 108.331 92.7867 108.207L87.0921 104.934C86.8792 104.811 86.638 104.746 86.3924 104.745C86.1467 104.744 85.905 104.807 85.6911 104.928C85.4772 105.048 85.2983 105.223 85.1723 105.434C85.0462 105.645 84.9772 105.885 84.972 106.13V106.13Z" stroke="#9EF5EE" stroke-width="5.14" stroke-linecap="round" stroke-linejoin="round"/>
<path d="M187.835 2.08936C187.835 2.08936 51 19.0894 19 68.0894C-1.18119 98.9919 13.7499 147.066 82.9855 119.589C191.334 76.589 235.986 182.648 235.986 231.089C235.986 294.089 174.486 334.589 115.666 315.861C43.4855 292.88 62.1697 372.089 62.1697 372.089" stroke="#FE697D" stroke-width="3" stroke-linecap="round"/>
</svg>
