<svg width="279" height="374" viewBox="0 0 279 374" fill="none" xmlns="http://www.w3.org/2000/svg">
<path d="M37.8843 118.986C37.8843 65.1221 81.5474 21.4548 135.411 21.4548C189.275 21.4548 232.938 65.1221 232.938 118.986C232.938 172.85 189.275 216.496 135.411 216.496C81.5474 216.496 37.8843 172.85 37.8843 118.986Z" stroke="#E5E5E5" stroke-width="3.06" stroke-linecap="round" stroke-linejoin="round"/>
<path fill-rule="evenodd" clip-rule="evenodd" d="M82.6414 157.225C81.8063 159.43 58.4695 230.43 58.4695 235.658C58.4695 240.885 151.558 295.684 159.458 297.188C163.784 295.309 163.792 286.841 163.792 282.515C163.792 278.189 129.653 253.704 129.653 253.704L82.6414 157.225Z" fill="#D5D5D5"/>
<path d="M94.7419 79.8364H60.5028V149.333H94.7419V79.8364Z" fill="#9EF5EE"/>
<path fill-rule="evenodd" clip-rule="evenodd" d="M114.408 67.6816C147.558 67.6816 143.416 136.431 141.453 143.98C136.814 149.667 96.6793 152.436 82.5077 143.98C77.209 131.032 83.0505 67.6816 114.408 67.6816Z" fill="#FE697D"/>
<path d="M114.409 55.7397C124.253 55.7397 132.234 47.7591 132.234 37.9145C132.234 28.07 124.253 20.0894 114.409 20.0894C104.564 20.0894 96.5834 28.07 96.5834 37.9145C96.5834 47.7591 104.564 55.7397 114.409 55.7397Z" fill="#FFCD67"/>
<path d="M101.552 21.8347C104.846 27.7151 109.845 32.459 115.89 35.4407C121.934 38.4224 128.741 39.5019 135.411 38.5367" stroke="#FFAE05" stroke-width="3.85" stroke-linecap="round" stroke-linejoin="round"/>
<path d="M112.133 42.5743C111.532 40.8332 111.715 39.1964 112.513 38.9166C113.31 38.6369 114.463 39.8227 115.064 41.5639C115.665 43.3051 115.482 44.9418 114.684 45.2174C113.887 45.493 112.73 44.3113 112.133 42.5743Z" stroke="#FFAE05" stroke-width="3.85" stroke-linecap="round" stroke-linejoin="round"/>
<path fill-rule="evenodd" clip-rule="evenodd" d="M50.0433 102.284C50.0433 100.219 50.6556 98.2011 51.8026 96.4845C52.9496 94.7679 54.5799 93.4299 56.4873 92.6398C58.3948 91.8497 60.4936 91.643 62.5186 92.0458C64.5435 92.4486 66.4035 93.4428 67.8634 94.9027C69.3233 96.3625 70.3174 98.2225 70.7202 100.247C71.123 102.272 70.9163 104.371 70.1262 106.279C69.3361 108.186 67.9982 109.816 66.2815 110.963C64.5649 112.11 62.5467 112.723 60.4821 112.723C57.7152 112.717 55.0633 111.616 53.1069 109.659C51.1504 107.703 50.0489 105.051 50.0433 102.284Z" fill="#FFCD67"/>
<path fill-rule="evenodd" clip-rule="evenodd" d="M82.6414 157.225C86.9505 158.895 126.747 162.695 139.846 157.225C141.169 167.835 139.917 333.848 139.917 333.848H93.4058C93.4058 327.706 102.592 316.729 121.311 316.545C120.196 308.178 82.6414 157.225 82.6414 157.225Z" fill="white"/>
<path d="M23.0278 50.3826H8.4846C3.79868 50.3826 0 54.1813 0 58.8672V73.4104C0 78.0963 3.79868 81.895 8.4846 81.895H23.0278C27.7138 81.895 31.5125 78.0963 31.5125 73.4104V58.8672C31.5125 54.1813 27.7138 50.3826 23.0278 50.3826Z" fill="#FE697D"/>
<path d="M31.5124 57.339C35.3543 57.339 38.4688 54.2245 38.4688 50.3826C38.4688 46.5407 35.3543 43.4263 31.5124 43.4263C27.6705 43.4263 24.556 46.5407 24.556 50.3826C24.556 54.2245 27.6705 57.339 31.5124 57.339Z" fill="#9EF5EE"/>
<path d="M124.734 70.3875C123.166 73.8852 122.364 77.6785 122.384 81.5119C122.404 85.3452 123.245 89.1299 124.85 92.6112C126.455 96.0925 128.787 99.1897 131.689 101.694C134.591 104.199 137.996 106.053 141.674 107.132" stroke="#9EF5EE" stroke-width="5.14" stroke-linecap="round" stroke-linejoin="round"/>
<path d="M80.7749 125.604C86.4745 125.606 92.0265 123.792 96.6259 120.426C101.225 117.06 104.633 112.316 106.354 106.883C108.076 101.45 108.022 95.6092 106.201 90.2085C104.379 84.8078 100.885 80.1277 96.2242 76.8469" stroke="#9EF5EE" stroke-width="5.14" stroke-linecap="round" stroke-linejoin="round"/>
<path d="M142.668 120.497C138.217 117.7 133.043 116.272 127.787 116.39C122.531 116.507 117.426 118.166 113.105 121.16C108.784 124.154 105.437 128.352 103.48 133.231C101.524 138.11 101.044 143.457 102.099 148.607" stroke="#9EF5EE" stroke-width="5.14" stroke-linecap="round" stroke-linejoin="round"/>
<path fill-rule="evenodd" clip-rule="evenodd" d="M109.995 121.554L96.1282 118.836L92.8087 94.8433L106.676 97.5615L109.995 121.554Z" fill="#383838"/>
<path fill-rule="evenodd" clip-rule="evenodd" d="M101.402 118.986C101.402 116.921 102.014 114.903 103.161 113.186C104.308 111.47 105.938 110.132 107.846 109.342C109.753 108.552 111.852 108.345 113.877 108.748C115.902 109.15 117.762 110.145 119.222 111.605C120.682 113.064 121.676 114.924 122.079 116.949C122.482 118.974 122.275 121.073 121.485 122.981C120.695 124.888 119.357 126.518 117.64 127.665C115.923 128.812 113.905 129.425 111.841 129.425C109.074 129.419 106.422 128.318 104.465 126.361C102.509 124.405 101.407 121.753 101.402 118.986Z" fill="#FFCD67"/>
<path d="M121.094 78.6631C127.774 84.8011 131.532 95.4277 133.495 106.639" stroke="white" stroke-width="16.23" stroke-linecap="round" stroke-linejoin="round"/>
<path d="M126.027 316.278C119.269 316.39 99 314.589 93 334.089L140 334.089L140 315.589L126.027 316.278Z" fill="#C7C7C7"/>
<path d="M126.027 316.278C119.269 316.39 99 314.589 93 334.089L140 334.089L140 315.589L126.027 316.278Z" fill="#C7C7C7"/>
<path d="M126.027 316.278C119.269 316.39 99 314.589 93 334.089L140 334.089L140 315.589L126.027 316.278Z" fill="#C7C7C7"/>
<path d="M275.866 2.08936C275.866 2.08936 286.284 206.057 235.866 226.089C179.903 248.325 190 139.589 127.366 153.089C71.6176 165.105 31.7207 243.361 65.366 277.589C120.779 333.962 233.933 242.98 203.697 315.861C192.102 343.808 150.201 372.089 150.201 372.089" stroke="#FEC246" stroke-width="3" stroke-linecap="round"/>
</svg>
