<svg width="319" height="374" viewBox="0 0 319 374" fill="none" xmlns="http://www.w3.org/2000/svg">
<path d="M104.286 96.9758L184.763 196.453L40 232.737L104.286 96.9758Z" stroke="#E5E5E5" stroke-width="3.06" stroke-linecap="round" stroke-linejoin="round"/>
<path d="M167.768 170.02C178.212 180.719 213.296 220.292 213.011 230.216C212.725 240.14 112.378 264.17 112.378 264.17V249.359L134.012 239.709L167.735 170.469" fill="white"/>
<path d="M139.557 77.5588C131.379 77.5588 124.749 70.9292 124.749 62.7511C124.749 54.573 131.379 47.9434 139.557 47.9434C147.735 47.9434 154.365 54.573 154.365 62.7511C154.365 70.9292 147.735 77.5588 139.557 77.5588Z" fill="#8CE08C"/>
<path d="M149.789 60.0406C149.99 58.5261 149.584 57.2202 148.878 57.1141C148.172 57.0081 147.437 58.1713 147.235 59.6748C147.034 61.1782 147.437 62.4951 148.143 62.6012C148.849 62.7073 149.584 61.555 149.789 60.0406Z" stroke="#2B7C63" stroke-width="3.65" stroke-linecap="round" stroke-linejoin="round"/>
<path d="M142.853 86.8979L191.275 170.469L102.443 151.616L142.853 86.8979Z" fill="#FE697D"/>
<path d="M144.913 24.0894L154.365 44.4939L131.97 42.4747L144.913 24.0894Z" fill="#2B7C63"/>
<path d="M148.794 322.863C153.915 322.863 166.645 323.5 174.652 337.089H137.732V322.863H148.794Z" fill="#C2C2C2"/>
<path d="M113.292 260.428C113.292 265.549 112.656 278.279 99.0664 286.287V249.366H113.292V260.428Z" fill="#777777"/>
<path d="M167.768 170.02L117.605 159.697L137.732 322.863L155.7 324.524L167.768 170.02Z" fill="#EEEEEE"/>
<path fill-rule="evenodd" clip-rule="evenodd" d="M129.344 181.239C129.344 178.756 128.608 176.328 127.228 174.264C125.849 172.199 123.888 170.59 121.594 169.64C119.3 168.69 116.776 168.441 114.34 168.926C111.905 169.41 109.668 170.606 107.912 172.361C106.156 174.117 104.961 176.354 104.476 178.789C103.992 181.225 104.241 183.749 105.191 186.043C106.141 188.337 107.75 190.298 109.815 191.677C111.879 193.057 114.306 193.793 116.789 193.793C120.119 193.792 123.312 192.469 125.666 190.115C128.02 187.761 129.343 184.568 129.344 181.239Z" fill="#8CE08C"/>
<path d="M275.845 45.2146L280.849 47.5118L276.353 50.6943L275.845 45.2146Z" stroke="#FE697D" stroke-width="3" stroke-linecap="round" stroke-linejoin="round"/>
<path d="M231.591 135.271C229.055 135.271 227 133.216 227 130.68C227 128.145 229.055 126.089 231.591 126.089C234.126 126.089 236.182 128.145 236.182 130.68C236.182 133.216 234.126 135.271 231.591 135.271Z" stroke="#9EF5EE" stroke-width="5.14" stroke-linecap="round" stroke-linejoin="round"/>
<path d="M152.437 103.443L136.144 97.6453" stroke="#9EF5EE" stroke-width="5.14" stroke-linecap="round" stroke-linejoin="round"/>
<path d="M162.588 120.962L129.037 109.025" stroke="#9EF5EE" stroke-width="5.14" stroke-linecap="round" stroke-linejoin="round"/>
<path d="M172.739 138.484L121.929 120.406" stroke="#9EF5EE" stroke-width="5.14" stroke-linecap="round" stroke-linejoin="round"/>
<path d="M182.894 156.006L114.822 131.789" stroke="#9EF5EE" stroke-width="5.14" stroke-linecap="round" stroke-linejoin="round"/>
<path d="M174.371 166.884L107.718 143.169" stroke="#9EF5EE" stroke-width="5.14" stroke-linecap="round" stroke-linejoin="round"/>
<path d="M151.018 111.882L163.217 132.938" stroke="white" stroke-width="16" stroke-linecap="round" stroke-linejoin="round"/>
<path d="M197.95 125.256L164 131.063" stroke="white" stroke-width="16" stroke-linecap="round" stroke-linejoin="round"/>
<path fill-rule="evenodd" clip-rule="evenodd" d="M216.109 125.647C216.109 123.164 215.374 120.736 213.994 118.671C212.615 116.606 210.655 114.996 208.36 114.046C206.066 113.095 203.542 112.846 201.106 113.33C198.67 113.815 196.433 115.01 194.677 116.766C192.921 118.522 191.725 120.76 191.241 123.195C190.757 125.631 191.006 128.156 191.956 130.45C192.907 132.744 194.517 134.705 196.582 136.084C198.647 137.463 201.075 138.199 203.558 138.198C206.887 138.198 210.079 136.876 212.433 134.522C214.786 132.168 216.109 128.976 216.109 125.647Z" fill="#8CE08C"/>
<path d="M317 2.08936C317 2.08936 274.557 84.974 224.139 105.007C168.176 127.242 125.208 57.7851 71.2219 84.4231C-8.88805 123.952 -20.5689 246.737 41.9506 310.339C97.3638 366.712 275.068 242.98 244.831 315.861C233.237 343.808 191.335 372.089 191.335 372.089" stroke="#59D090" stroke-width="3" stroke-linecap="round"/>
<path fill-rule="evenodd" clip-rule="evenodd" d="M238.69 141.089H202L233.31 55.0894H270L238.69 141.089Z" fill="#FEFDDB"/>
<path fill-rule="evenodd" clip-rule="evenodd" d="M210.092 33.0894L205 47.0894H221.908L227 33.0894H210.092Z" fill="#9EF5EE"/>
<path opacity="0.75" fill-rule="evenodd" clip-rule="evenodd" d="M259.801 117.089L251 141.089H288.195L297 117.089H259.801Z" fill="#9EF5EE"/>
<path d="M227.5 37.0894C229.985 37.0894 232 35.0746 232 32.5894C232 30.1041 229.985 28.0894 227.5 28.0894C225.015 28.0894 223 30.1041 223 32.5894C223 35.0746 225.015 37.0894 227.5 37.0894Z" fill="#FE697D"/>
<path d="M261 59.0894L251.18 69.0894L248 64.8063" stroke="#9EF5EE" stroke-width="5.14" stroke-linecap="round" stroke-linejoin="round"/>
<path d="M257 78.0894L247.18 87.0894L244 83.2346" stroke="#9EF5EE" stroke-width="5.14" stroke-linecap="round" stroke-linejoin="round"/>
<path d="M248 98.0894L238.18 108.089L235 103.802" stroke="#9EF5EE" stroke-width="5.14" stroke-linecap="round" stroke-linejoin="round"/>
</svg>
