<svg width="279" height="374" viewBox="0 0 279 374" fill="none" xmlns="http://www.w3.org/2000/svg">
<path d="M37.8843 118.807C37.8843 64.9434 81.5474 21.2761 135.411 21.2761C189.275 21.2761 232.938 64.9434 232.938 118.807C232.938 172.671 189.275 216.318 135.411 216.318C81.5474 216.318 37.8843 172.671 37.8843 118.807Z" stroke="#E5E5E5" stroke-width="3.06" stroke-linecap="round" stroke-linejoin="round"/>
<path fill-rule="evenodd" clip-rule="evenodd" d="M82.6414 157.046C81.8063 159.251 58.4695 230.251 58.4695 235.479C58.4695 240.707 151.558 295.506 159.458 297.009C163.784 295.13 163.792 286.662 163.792 282.336C163.792 278.01 129.653 253.525 129.653 253.525L82.6414 157.046Z" fill="#D5D5D5"/>
<path d="M94.7419 79.6577H60.5028V149.155H94.7419V79.6577Z" fill="#9EF5EE"/>
<path fill-rule="evenodd" clip-rule="evenodd" d="M114.408 67.5029C147.558 67.5029 143.416 136.252 141.453 143.802C136.814 149.489 96.6793 152.257 82.5077 143.802C77.209 130.854 83.0505 67.5029 114.408 67.5029Z" fill="#FE697D"/>
<path d="M114.409 55.561C124.253 55.561 132.234 47.5804 132.234 37.7358C132.234 27.8912 124.253 19.9106 114.409 19.9106C104.564 19.9106 96.5834 27.8912 96.5834 37.7358C96.5834 47.5804 104.564 55.561 114.409 55.561Z" fill="#FFCD67"/>
<path d="M101.552 21.656C104.846 27.5364 109.845 32.2803 115.89 35.262C121.934 38.2437 128.741 39.3232 135.411 38.358" stroke="#FFAE05" stroke-width="3.85" stroke-linecap="round" stroke-linejoin="round"/>
<path d="M112.133 42.3956C111.532 40.6545 111.715 39.0177 112.513 38.7379C113.31 38.4581 114.463 39.644 115.064 41.3852C115.665 43.1263 115.482 44.7631 114.684 45.0387C113.887 45.3143 112.73 44.1326 112.133 42.3956Z" stroke="#FFAE05" stroke-width="3.85" stroke-linecap="round" stroke-linejoin="round"/>
<path fill-rule="evenodd" clip-rule="evenodd" d="M50.0433 102.105C50.0433 100.041 50.6556 98.0224 51.8026 96.3058C52.9496 94.5892 54.5799 93.2512 56.4873 92.4611C58.3948 91.671 60.4936 91.4643 62.5186 91.8671C64.5435 92.2699 66.4035 93.2641 67.8634 94.7239C69.3233 96.1838 70.3174 98.0438 70.7202 100.069C71.123 102.094 70.9163 104.193 70.1262 106.1C69.3361 108.007 67.9982 109.638 66.2815 110.785C64.5649 111.932 62.5467 112.544 60.4821 112.544C57.7152 112.538 55.0633 111.437 53.1069 109.48C51.1504 107.524 50.0489 104.872 50.0433 102.105Z" fill="#FFCD67"/>
<path d="M23.0278 50.2039H8.4846C3.79868 50.2039 0 54.0025 0 58.6885V73.2317C0 77.9176 3.79868 81.7163 8.4846 81.7163H23.0278C27.7138 81.7163 31.5125 77.9176 31.5125 73.2317V58.6885C31.5125 54.0025 27.7138 50.2039 23.0278 50.2039Z" fill="#FE697D"/>
<path d="M31.5124 57.1603C35.3543 57.1603 38.4688 54.0458 38.4688 50.2039C38.4688 46.362 35.3543 43.2476 31.5124 43.2476C27.6705 43.2476 24.556 46.362 24.556 50.2039C24.556 54.0458 27.6705 57.1603 31.5124 57.1603Z" fill="#9EF5EE"/>
<path d="M124.734 70.2087C123.166 73.7065 122.364 77.4997 122.384 81.3331C122.404 85.1665 123.245 88.9512 124.85 92.4325C126.455 95.9138 128.787 99.011 131.689 101.516C134.591 104.02 137.996 105.874 141.674 106.953" stroke="#9EF5EE" stroke-width="5.14" stroke-linecap="round" stroke-linejoin="round"/>
<path d="M80.7749 125.425C86.4745 125.427 92.0265 123.614 96.6259 120.248C101.225 116.881 104.633 112.138 106.354 106.704C108.076 101.271 108.022 95.4305 106.201 90.0298C104.379 84.6291 100.885 79.949 96.2242 76.6682" stroke="#9EF5EE" stroke-width="5.14" stroke-linecap="round" stroke-linejoin="round"/>
<path d="M142.668 120.319C138.217 117.521 133.043 116.093 127.787 116.211C122.531 116.329 117.426 117.988 113.105 120.982C108.784 123.976 105.437 128.173 103.48 133.052C101.524 137.932 101.044 143.278 102.099 148.428" stroke="#9EF5EE" stroke-width="5.14" stroke-linecap="round" stroke-linejoin="round"/>
<path fill-rule="evenodd" clip-rule="evenodd" d="M109.995 121.375L96.1282 118.657L92.8087 94.6646L106.676 97.3828L109.995 121.375Z" fill="#383838"/>
<path fill-rule="evenodd" clip-rule="evenodd" d="M101.402 118.807C101.402 116.743 102.014 114.724 103.161 113.008C104.308 111.291 105.938 109.953 107.846 109.163C109.753 108.373 111.852 108.166 113.877 108.569C115.902 108.972 117.762 109.966 119.222 111.426C120.682 112.886 121.676 114.746 122.079 116.771C122.482 118.796 122.275 120.894 121.485 122.802C120.695 124.709 119.357 126.34 117.64 127.487C115.923 128.634 113.905 129.246 111.841 129.246C109.074 129.24 106.422 128.139 104.465 126.182C102.509 124.226 101.407 121.574 101.402 118.807Z" fill="#FFCD67"/>
<path d="M121.094 78.4844C127.774 84.6224 131.532 95.249 133.495 106.46" stroke="white" stroke-width="16.23" stroke-linecap="round" stroke-linejoin="round"/>
<path d="M126.027 316.099C119.269 316.211 99 314.411 93 333.911L140 333.911L140 315.411L126.027 316.099Z" fill="#C7C7C7"/>
<path d="M126.027 316.099C119.269 316.211 99 314.411 93 333.911L140 333.911L140 315.411L126.027 316.099Z" fill="#C7C7C7"/>
<path d="M126.027 316.099C119.269 316.211 99 314.411 93 333.911L140 333.911L140 315.411L126.027 316.099Z" fill="#C7C7C7"/>
<path fill-rule="evenodd" clip-rule="evenodd" d="M82.6414 157.046C86.9505 158.717 126.747 162.516 139.846 157.046C141.169 167.656 139.917 333.67 139.917 333.67H93.4058C93.4058 327.528 102.592 316.55 121.311 316.367C120.196 307.999 82.6414 157.046 82.6414 157.046Z" fill="white"/>
<path d="M151.879 288.931C147.346 293.945 132.19 307.523 142.339 325.222L174.433 290.886L160.917 278.253L151.879 288.931Z" fill="#C7C7C7"/>
<path d="M151.879 288.931C147.346 293.945 132.19 307.523 142.339 325.222L174.433 290.886L160.917 278.253L151.879 288.931Z" fill="#C7C7C7"/>
<path d="M151.879 288.931C147.346 293.945 132.19 307.523 142.339 325.222L174.433 290.886L160.917 278.253L151.879 288.931Z" fill="#C7C7C7"/>
<path d="M275.866 1.91064C275.866 1.91064 286.284 205.878 235.866 225.911C179.903 248.146 190 139.411 127.366 152.911C71.6176 164.926 31.7207 243.183 65.366 277.411C120.779 333.783 233.933 242.801 203.697 315.683C192.102 343.63 150.201 371.911 150.201 371.911" stroke="#FEC246" stroke-width="3" stroke-linecap="round"/>
</svg>
