<svg width="27" height="34" viewBox="0 0 27 34" fill="none" xmlns="http://www.w3.org/2000/svg">
<path fill-rule="evenodd" clip-rule="evenodd" d="M6.4541 10.3863L6.45062 10.4126H19.9243L19.9209 10.3863C19.8016 9.49193 19.5655 8.32422 19.1064 7.17629C18.646 6.02533 17.9875 4.95924 17.0607 4.18694C16.1588 3.4353 14.9311 2.9001 13.1875 2.9001C11.4438 2.9001 10.2162 3.4353 9.3142 4.18694C8.38744 4.95924 7.72898 6.02533 7.26859 7.17629C6.80942 8.32422 6.57335 9.49193 6.4541 10.3863ZM22.6963 10.0162C22.7147 10.1545 22.7308 10.2869 22.7447 10.4126H24.875C25.6482 10.4126 26.275 11.0394 26.275 11.8126V11.8598V11.9068V11.9538V12.0007V12.0476V12.0943V12.141V12.1876V12.2341V12.2805V12.3269V12.3732V12.4194V12.4655V12.5116V12.5576V12.6035V12.6493V12.695V12.7407V12.7863V12.8318V12.8773V12.9227V12.968V13.0132V13.0584V13.1035V13.1485V13.1934V13.2383V13.2831V13.3278V13.3725V13.4171V13.4616V13.506V13.5504V13.5947V13.639V13.6831V13.7272V13.7713V13.8153V13.8592V13.903V13.9468V13.9905V14.0341V14.0777V14.1212V14.1646V14.208V14.2513V14.2946V14.3378V14.3809V14.4239V14.4669V14.5099V14.5528V14.5956V14.6383V14.681V14.7236V14.7662V14.8087V14.8512V14.8935V14.9359V14.9781V15.0204V15.0625V15.1046V15.1467V15.1886V15.2306V15.2724V15.3142V15.356V15.3977V15.4393V15.4809V15.5225V15.5639V15.6054V15.6467V15.6881V15.7293V15.7705V15.8117V15.8528V15.8939V15.9349V15.9758V16.0167V16.0576V16.0984V16.1391V16.1798V16.2205V16.2611V16.3016V16.3421V16.3826V16.423V16.4634V16.5037V16.544V16.5842V16.6244V16.6645V16.7046V16.7446V16.7846V16.8246V16.8645V16.9043V16.9441V16.9839V17.0237V17.0633V17.103V17.1426V17.1822V17.2217V17.2612V17.3006V17.34V17.3794V17.4187V17.458V17.4972V17.5364V17.5756V17.6147V17.6538V17.6928V17.7318V17.7708V17.8097V17.8486V17.8875V17.9263V17.9651V18.0039V18.0426V18.0813V18.12V18.1586V18.1972V18.2357V18.2743V18.3127V18.3512V18.3896V18.428V18.4664V18.5047V18.543V18.5813V18.6195V18.6577V18.6959V18.7341V18.7722V18.8103V18.8483V18.8864V18.9244V18.9624V19.0003V19.0383V19.0762V19.114V19.1519V19.1897V19.2275V19.2653V19.3031V19.3408V19.3785V19.4162V19.4538V19.4915V19.5291V19.5667V19.6042V19.6418V19.6793V19.7168V19.7543V19.7918V19.8292V19.8667V19.9041V19.9414V19.9788V20.0162V20.0535V20.0908V20.1281V20.1654V20.2027V20.2399V20.2771V20.3143V20.3515V20.3887V20.4259V20.4631V20.5002V20.5373V20.5744V20.6115V20.6486V20.6857V20.7228V20.7598V20.7968V20.8339V20.8709V20.9079V20.9449V20.9819V21.0189V21.0558V21.0928V21.1297V21.1667V21.2036V21.2405V21.2774V21.3143V21.3512V21.3881V21.425V21.4619V21.4988V21.5356V21.5725V21.6094V21.6462V21.6831V21.7199V21.7568V21.7936V21.8305V21.8673V21.9041V21.941V21.9778V22.0146V22.0514V22.0883V22.1251V22.1619V22.1988V22.2356V22.2724V22.3092V22.3461V22.3829V22.4197V22.4566V22.4934V22.5303V22.5671V22.604V22.6408V22.6777V22.7146V22.7514V22.7883V22.8252V22.8621V22.899V22.9359V22.9728V23.0097V23.0466V23.0835V23.1205V23.1574V23.1944V23.2313V23.2683V23.3053V23.3423V23.3793V23.4163V23.4533V23.4904V23.5274V23.5645V23.6016V23.6387V23.6758V23.7129V23.75V23.7871V23.8243V23.8615V23.8986V23.9358V23.9731V24.0103V24.0475V24.0848V24.1221V24.1594V24.1967V24.234V24.2714V24.3087V24.3461V24.3835V24.421V24.4584V24.4959V24.5334V24.5709V24.6084V24.6459V24.6835V24.7211V24.7587V24.7964V24.834V24.8717V24.9094V24.9471V24.9849V25.0227V25.0605V25.0983V25.1361V25.174V25.2119V25.2499V25.2878V25.3258V25.3638V25.4018V25.4399V25.478V25.5161V25.5543V25.5925V25.6307V25.6689V25.7072V25.7455V25.7838V25.8222V25.8606V25.899V25.9375V25.9759V26.0145V26.053V26.0916V26.1302V26.1689V26.2076V26.2463V26.2851V26.3239V26.3627V26.4016V26.4405V26.4794V26.5184V26.5574V26.5964V26.6355V26.6746V26.7138V26.753V26.7922V26.8315V26.8708V26.9102V26.9496V26.989V27.0285V27.068V27.1076V27.1472V27.1869V27.2265V27.2663V27.306V27.3459V27.3857V27.4256V27.4656V27.5056V27.5456V27.5857V27.6258V27.666V27.7062V27.7465V27.7868V27.8272V27.8676V27.908V27.9486V27.9891V28.0297V28.0704V28.1111V28.1518V28.1926V28.2335V28.2744V28.3153V28.3563V28.3974V28.4385V28.4797V28.5209V28.5621V28.6035V28.6448V28.6863V28.7277V28.7693V28.8109V28.8525V28.8942V28.936V28.9778V29.0196V29.0616V29.1035V29.1456V29.1877V29.2298V29.272V29.3143V29.3566V29.399V29.4415V29.484V29.5266V29.5692V29.6119V29.6546V29.6974V29.7403V29.7833V29.8262V29.8693V29.9124V29.9556V29.9989V30.0422V30.0856V30.129V30.1725V30.2161V30.2597V30.3034V30.3472V30.391V30.4349V30.4789V30.5229V30.5671V30.6112V30.6555V30.6998V30.7442V30.7886V30.8331V30.8777V30.9224V30.9671V31.0119V31.0568V31.1017V31.1467V31.1918V31.237V31.2822V31.3275V31.3729V31.4184V31.4639V31.5095V31.5552V31.6009V31.6467V31.6926V31.7386V31.7847V31.8308V31.877V31.9233V31.9696V32.0161V32.0626V32.1092V32.1559V32.2026V32.2495V32.2964V32.3434V32.3904V32.4376C26.275 33.2108 25.6482 33.8376 24.875 33.8376H1.49998C0.726777 33.8376 0.0999756 33.2108 0.0999756 32.4376V11.8126C0.0999756 11.0394 0.726777 10.4126 1.49998 10.4126H3.63027C3.64419 10.2869 3.66022 10.1545 3.67866 10.0162C3.81723 8.97702 4.09678 7.5666 4.66886 6.1364C5.23972 4.70924 6.12814 3.19721 7.52169 2.03592C8.94003 0.853962 10.8061 0.100098 13.1875 0.100098C15.5688 0.100098 17.4349 0.853962 18.8533 2.03592C20.2468 3.19721 21.1352 4.70924 21.7061 6.1364C22.2782 7.5666 22.5577 8.97702 22.6963 10.0162ZM2.89998 31.0376V13.2126H4.93748H21.4375H23.475V13.2383V13.2831V13.3278V13.3725V13.4171V13.4616V13.506V13.5504V13.5947V13.639V13.6831V13.7272V13.7713V13.8153V13.8592V13.903V13.9468V13.9905V14.0341V14.0777V14.1212V14.1646V14.208V14.2513V14.2946V14.3378V14.3809V14.4239V14.4669V14.5099V14.5528V14.5956V14.6383V14.681V14.7236V14.7662V14.8087V14.8512V14.8935V14.9359V14.9781V15.0204V15.0625V15.1046V15.1467V15.1886V15.2306V15.2724V15.3142V15.356V15.3977V15.4393V15.4809V15.5225V15.5639V15.6054V15.6467V15.6881V15.7293V15.7705V15.8117V15.8528V15.8939V15.9349V15.9758V16.0167V16.0576V16.0984V16.1391V16.1798V16.2205V16.2611V16.3016V16.3421V16.3826V16.423V16.4634V16.5037V16.544V16.5842V16.6244V16.6645V16.7046V16.7446V16.7846V16.8246V16.8645V16.9043V16.9441V16.9839V17.0237V17.0633V17.103V17.1426V17.1822V17.2217V17.2612V17.3006V17.34V17.3794V17.4187V17.458V17.4972V17.5364V17.5756V17.6147V17.6538V17.6928V17.7318V17.7708V17.8097V17.8486V17.8875V17.9263V17.9651V18.0039V18.0426V18.0813V18.12V18.1586V18.1972V18.2357V18.2743V18.3127V18.3512V18.3896V18.428V18.4664V18.5047V18.543V18.5813V18.6195V18.6577V18.6959V18.7341V18.7722V18.8103V18.8483V18.8864V18.9244V18.9624V19.0003V19.0383V19.0762V19.114V19.1519V19.1897V19.2275V19.2653V19.3031V19.3408V19.3785V19.4162V19.4538V19.4915V19.5291V19.5667V19.6042V19.6418V19.6793V19.7168V19.7543V19.7918V19.8292V19.8667V19.9041V19.9414V19.9788V20.0162V20.0535V20.0908V20.1281V20.1654V20.2027V20.2399V20.2771V20.3143V20.3515V20.3887V20.4259V20.4631V20.5002V20.5373V20.5744V20.6115V20.6486V20.6857V20.7228V20.7598V20.7968V20.8339V20.8709V20.9079V20.9449V20.9819V21.0189V21.0558V21.0928V21.1297V21.1667V21.2036V21.2405V21.2774V21.3143V21.3512V21.3881V21.425V21.4619V21.4988V21.5356V21.5725V21.6094V21.6462V21.6831V21.7199V21.7568V21.7936V21.8305V21.8673V21.9041V21.941V21.9778V22.0146V22.0514V22.0883V22.1251V22.1619V22.1988V22.2356V22.2724V22.3092V22.3461V22.3829V22.4197V22.4566V22.4934V22.5303V22.5671V22.604V22.6408V22.6777V22.7146V22.7514V22.7883V22.8252V22.8621V22.899V22.9359V22.9728V23.0097V23.0466V23.0835V23.1205V23.1574V23.1944V23.2313V23.2683V23.3053V23.3423V23.3793V23.4163V23.4533V23.4904V23.5274V23.5645V23.6016V23.6387V23.6758V23.7129V23.75V23.7871V23.8243V23.8615V23.8986V23.9358V23.9731V24.0103V24.0475V24.0848V24.1221V24.1594V24.1967V24.234V24.2714V24.3087V24.3461V24.3835V24.421V24.4584V24.4959V24.5334V24.5709V24.6084V24.6459V24.6835V24.7211V24.7587V24.7964V24.834V24.8717V24.9094V24.9471V24.9849V25.0227V25.0605V25.0983V25.1361V25.174V25.2119V25.2499V25.2878V25.3258V25.3638V25.4018V25.4399V25.478V25.5161V25.5543V25.5925V25.6307V25.6689V25.7072V25.7455V25.7838V25.8222V25.8606V25.899V25.9375V25.9759V26.0145V26.053V26.0916V26.1302V26.1689V26.2076V26.2463V26.2851V26.3239V26.3627V26.4016V26.4405V26.4794V26.5184V26.5574V26.5964V26.6355V26.6746V26.7138V26.753V26.7922V26.8315V26.8708V26.9102V26.9496V26.989V27.0285V27.068V27.1076V27.1472V27.1869V27.2265V27.2663V27.306V27.3459V27.3857V27.4256V27.4656V27.5056V27.5456V27.5857V27.6258V27.666V27.7062V27.7465V27.7868V27.8272V27.8676V27.908V27.9486V27.9891V28.0297V28.0704V28.1111V28.1518V28.1926V28.2335V28.2744V28.3153V28.3563V28.3974V28.4385V28.4797V28.5209V28.5621V28.6035V28.6448V28.6863V28.7277V28.7693V28.8109V28.8525V28.8942V28.936V28.9778V29.0196V29.0616V29.1035V29.1456V29.1877V29.2298V29.272V29.3143V29.3566V29.399V29.4415V29.484V29.5266V29.5692V29.6119V29.6546V29.6974V29.7403V29.7833V29.8262V29.8693V29.9124V29.9556V29.9989V30.0422V30.0856V30.129V30.1725V30.2161V30.2597V30.3034V30.3472V30.391V30.4349V30.4789V30.5229V30.5671V30.6112V30.6555V30.6998V30.7442V30.7886V30.8331V30.8777V30.9224V30.9671V31.0119V31.0376H2.89998ZM14.9312 23.45C15.5774 23.9019 16 24.6516 16 25.5C16 26.8807 14.8807 28 13.5 28C12.1193 28 11 26.8807 11 25.5C11 24.6246 11.45 23.8542 12.1312 23.4077V19.7188H14.9312V23.45Z" fill="#5645BA"/>
</svg>
