<svg width="43" height="23" viewBox="0 0 43 23" fill="none" xmlns="http://www.w3.org/2000/svg">
<path fill-rule="evenodd" clip-rule="evenodd" d="M11.2 22.4C17.3856 22.4 22.4 17.3856 22.4 11.2C22.4 5.01441 17.3856 0 11.2 0C5.01441 0 0 5.01441 0 11.2C0 17.3856 5.01441 22.4 11.2 22.4ZM11.2 19.6C15.8392 19.6 19.6 15.8392 19.6 11.2C19.6 6.56083 15.8392 2.80002 11.2 2.80002C6.56081 2.80002 2.8 6.56083 2.8 11.2C2.8 15.8392 6.56081 19.6 11.2 19.6Z" fill="#5645BA"/>
<path fill-rule="evenodd" clip-rule="evenodd" d="M31.2 22.4C37.3856 22.4 42.4 17.3856 42.4 11.2C42.4 5.01441 37.3856 0 31.2 0C25.0144 0 20 5.01441 20 11.2C20 17.3856 25.0144 22.4 31.2 22.4ZM31.2 19.6C35.8392 19.6 39.6 15.8392 39.6 11.2C39.6 6.56083 35.8392 2.80002 31.2 2.80002C26.5608 2.80002 22.8 6.56083 22.8 11.2C22.8 15.8392 26.5608 19.6 31.2 19.6Z" fill="#5645BA"/>
</svg>
