<svg width="40" height="35" viewBox="0 0 40 35" fill="none" xmlns="http://www.w3.org/2000/svg">
<path d="M35.3015 16.9499V30.4309C35.3015 31.5226 34.4261 32.4127 33.3345 32.4307L7.10601 32.8636C6.00394 32.8818 5.09489 32.0049 5.07338 30.9029L4.80106 16.9499H4C2.89543 16.9499 2 16.0545 2 14.9499V11.7241C2 10.6196 2.89543 9.72412 4 9.72412H36.4138C37.5184 9.72412 38.4138 10.6196 38.4138 11.7241V14.9499C38.4138 16.0545 37.5184 16.9499 36.4138 16.9499H35.3015ZM35.3015 16.9499H5.11229" stroke="#5645BA" stroke-width="2.8" stroke-linejoin="round"/>
<path d="M16.4664 34C16.4664 24.3875 16.4664 9.38558 16.4664 9.38558V5.45775M16.4664 5.45775C16.4664 5.45775 18.4295 3.4165 20.1636 3.3629C21.999 3.30618 24.1689 5.45775 24.1689 5.45775M16.4664 5.45775C16.4664 5.45775 12.6923 1.49696 9.68823 2.05363C7.44227 2.46981 5.87376 3.55063 5.37482 5.45775C4.9694 7.00742 6.60722 9.38558 6.60722 9.38558M24.1689 5.45775V8.86187V34M24.1689 5.45775C24.1689 5.45775 28.0123 1.72758 30.9471 2.31548C32.9415 2.71499 34.2914 3.54756 34.9524 5.19589C35.5843 6.77157 34.0281 9.38558 34.0281 9.38558" stroke="#5645BA" stroke-width="2.8" stroke-linejoin="round"/>
</svg>
